<?xml version="1.0" encoding="UTF-8"?>
<svg version="1.1" xmlns="http://www.w3.org/2000/svg" width="933" height="214">
<path d="M0 0 C4.59769953 0.73750192 6.40802716 1.95903915 9.625 5.375 C10.38039062 6.16648437 11.13578125 6.95796875 11.9140625 7.7734375 C12.60242188 8.50820313 13.29078125 9.24296875 14 10 C14.87785156 10.82371094 14.87785156 10.82371094 15.7734375 11.6640625 C17 13 17 13 17 15 C17.5775 15.2475 18.155 15.495 18.75 15.75 C21.32939979 17.18299988 23.06121592 18.78424676 25 21 C25 21.66 25 22.32 25 23 C25.61875 23.2475 26.2375 23.495 26.875 23.75 C29.35068687 25.20628639 29.95125002 26.37812506 31 29 C31.66 29 32.32 29 33 29 C34.40234375 30.28515625 34.40234375 30.28515625 35.9375 32.0625 C36.44152344 32.63097656 36.94554688 33.19945312 37.46484375 33.78515625 C41.43561582 39.51398007 42.46947381 44.62885366 42.6875 51.4375 C42.72166016 52.16904297 42.75582031 52.90058594 42.79101562 53.65429688 C42.87251753 55.43569562 42.93795523 57.21781749 43 59 C43.99 59 44.98 59 46 59 C45.938125 57.7625 45.87625 56.525 45.8125 55.25 C45.86876286 46.31827169 47.52887726 38.48562694 53.90234375 32.00390625 C54.59457031 31.34261719 55.28679687 30.68132813 56 30 C56.82628906 29.16339844 57.65257813 28.32679687 58.50390625 27.46484375 C60.98316504 24.95602598 63.48784264 22.47580782 66 20 C68.68479344 17.33249991 71.34625011 14.64666581 73.97265625 11.921875 C75.0025347 10.86451567 76.03248332 9.80722467 77.0625 8.75 C77.57876953 8.20859375 78.09503906 7.6671875 78.62695312 7.109375 C83.23064482 2.41771468 83.23064482 2.41771468 87 2 C87.99 2.99 87.99 2.99 89 4 C88.73252303 6.00986745 88.38710006 8.0097074 88 10 C87.89181169 12.16510591 87.82356324 14.3324673 87.7890625 16.5 C87.76070312 17.716875 87.73234375 18.93375 87.703125 20.1875 C87.6510447 22.72901864 87.60677261 25.27070929 87.5703125 27.8125 C87.539375 29.029375 87.5084375 30.24625 87.4765625 31.5 C87.45674316 32.6034375 87.43692383 33.706875 87.41650391 34.84375 C86.72685727 40.06986474 84.51924922 43.88937728 80.75 47.5078125 C80.1415625 48.10207031 79.533125 48.69632813 78.90625 49.30859375 C77.96265625 50.20771484 77.96265625 50.20771484 77 51.125 C75.74775797 52.33361885 74.49768591 53.54449082 73.25 54.7578125 C72.67378906 55.31758789 72.09757812 55.87736328 71.50390625 56.45410156 C69.86264704 58.07400133 69.86264704 58.07400133 68.1875 60.4296875 C67.795625 60.94789062 67.40375 61.46609375 67 62 C66.34 62 65.68 62 65 62 C65.495 64.475 65.495 64.475 66 67 C66.94875 66.34 67.8975 65.68 68.875 65 C72 63 72 63 74 63 C74.309375 62.1646875 74.309375 62.1646875 74.625 61.3125 C76.17282456 58.70934052 78.07290128 57.14846227 80.4296875 55.28125 C82.20630219 53.87564088 82.20630219 53.87564088 84.4375 51.5625 C86.41995511 49.58004489 88.40747674 47.67452934 90.5 45.8125 C91.0465625 45.32394531 91.593125 44.83539063 92.15625 44.33203125 C96.68259795 41.06193665 100.77778692 40.75948796 106.26953125 40.8046875 C106.95053391 40.8075174 107.63153656 40.81034729 108.33317566 40.81326294 C110.49313455 40.82439475 112.65266794 40.84948543 114.8125 40.875 C116.28319711 40.88503889 117.75390076 40.89416315 119.22460938 40.90234375 C122.81654286 40.92431087 126.40822985 40.9587918 130 41 C130.57861328 42.875 130.57861328 42.875 131 45 C129.7421875 47 129.7421875 47 127.875 49 C127.22660156 49.69738281 126.57820312 50.39476562 125.91015625 51.11328125 C123.7362471 53.26051667 121.4033764 55.11627255 119 57 C118.401875 57.763125 117.80375 58.52625 117.1875 59.3125 C114.82489596 62.21512783 112.25759653 64.42102107 109.41015625 66.83203125 C107.54219511 68.51228803 105.7984672 70.20568189 104.05859375 72.01171875 C103.54296875 72.54466553 103.02734375 73.0776123 102.49609375 73.62670898 C101.48074177 74.68420825 100.47373436 75.74980358 99.4765625 76.82446289 C92.54069838 84.02088929 85.68088484 84.47853447 76.0625 84.6875 C74.99708984 84.72166016 73.93167969 84.75582031 72.83398438 84.79101562 C70.22276154 84.87298226 67.61185279 84.94229887 65 85 C64.505 86.98 64.505 86.98 64 89 C65.04341553 89.01401855 65.04341553 89.01401855 66.10791016 89.02832031 C69.280975 89.08223546 72.4525991 89.16584173 75.625 89.25 C76.71941406 89.26417969 77.81382812 89.27835937 78.94140625 89.29296875 C85.26012724 89.48444514 89.16574343 89.81773198 94 94 C94.78375 94.53625 95.5675 95.0725 96.375 95.625 C97.179375 96.305625 97.179375 96.305625 98 97 C98 97.66 98 98.32 98 99 C98.66 99 99.32 99 100 99 C101.23581672 100.43621943 102.46576988 101.87830536 103.65234375 103.35546875 C106.5923146 106.94308535 109.9730807 110.00746241 113.5 113 C116.48811584 115.53537102 119.29784127 118.15562239 122 121 C122.46792969 121.4846875 122.93585938 121.969375 123.41796875 122.46875 C126.9677765 126.36657812 126.9677765 126.36657812 127.13671875 129.6875 C127.09160156 130.450625 127.04648438 131.21375 127 132 C122.42850243 132.07457894 117.85736491 132.12880276 113.28540039 132.16479492 C111.7326032 132.17981105 110.17984791 132.20023028 108.62719727 132.22631836 C106.38547376 132.26302073 104.14431461 132.27979787 101.90234375 132.29296875 C101.21663803 132.30845261 100.53093231 132.32393646 99.82444763 132.33988953 C93.9276257 132.34191356 89.35578128 130.88315123 84.73657227 127.19067383 C84.10291748 126.53607178 83.4692627 125.88146973 82.81640625 125.20703125 C82.11708984 124.49482422 81.41777344 123.78261719 80.69726562 123.04882812 C79.99279297 122.31083984 79.28832031 121.57285156 78.5625 120.8125 C77.83095703 120.06291016 77.09941406 119.31332031 76.34570312 118.54101562 C74.55432565 116.70280475 72.77300908 114.85590467 71 113 C70.34 113.66 69.68 114.32 69 115 C69.45890625 115.51949219 69.9178125 116.03898437 70.390625 116.57421875 C73.02776281 119.57146991 75.64836042 122.55527936 78.125 125.6875 C80.02999996 128.12830087 80.02999996 128.12830087 82.625 130.5625 C87.03255998 135.0860484 87.31846052 138.88150596 87.4140625 145.046875 C87.44311172 146.20367767 87.44311172 146.20367767 87.4727478 147.3838501 C87.53237077 149.83912205 87.57885914 152.29444133 87.625 154.75 C87.66319575 156.41798882 87.70224841 158.08595826 87.7421875 159.75390625 C87.83805791 163.83577943 87.92215235 167.91774493 88 172 C85.95922852 172.91162109 85.95922852 172.91162109 83 173 C80.21004089 171.16817502 77.97794138 168.7933791 75.65234375 166.4140625 C74.95863174 165.72371918 74.26491974 165.03337585 73.55018616 164.32211304 C72.08303433 162.85466194 70.62336164 161.37970108 69.1706543 159.89794922 C66.96128738 157.64921127 64.72446064 155.430953 62.48242188 153.21484375 C61.05813991 151.78299451 59.63555841 150.34945138 58.21484375 148.9140625 C57.21939796 147.92909286 57.21939796 147.92909286 56.20384216 146.92422485 C49.60717439 140.12689049 46.08850774 132.50218135 45.68359375 123.015625 C45.64169922 122.08105469 45.59980469 121.14648438 45.55664062 120.18359375 C45.51732422 119.21550781 45.47800781 118.24742187 45.4375 117.25 C45.39431641 116.26644531 45.35113281 115.28289062 45.30664062 114.26953125 C45.20077948 111.84648725 45.09869829 109.4233446 45 107 C44.01 107 43.02 107 42 107 C42.02618408 107.67466309 42.05236816 108.34932617 42.0793457 109.04443359 C42.18442935 112.1543775 42.24867417 115.26394648 42.3125 118.375 C42.35439453 119.43589844 42.39628906 120.49679688 42.43945312 121.58984375 C42.59905755 131.99605223 39.73636706 138.32135004 32.65766907 145.79455566 C29.82467042 148.68917582 26.91600515 151.50194536 24 154.3125 C22.81133405 155.47602359 21.62382489 156.64073019 20.4375 157.80664062 C18.25704584 159.94660379 16.07015946 162.07947362 13.875 164.2043457 C11.22208367 166.77530301 8.60573705 169.3811761 6 172 C5 173 5 173 2.4375 173.0625 C1.633125 173.041875 0.82875 173.02125 0 173 C0.09440369 168.60715832 0.20067592 164.21480225 0.31738281 159.82250977 C0.3553815 158.33202727 0.39028196 156.84146211 0.421875 155.35083008 C0.884027 133.81021427 0.884027 133.81021427 8 126 C9.03591141 124.01836241 10.04156885 122.02024992 11 120 C10.31035156 120.61488281 9.62070313 121.22976562 8.91015625 121.86328125 C7.97042969 122.67152344 7.03070313 123.47976562 6.0625 124.3125 C5.14597656 125.11300781 4.22945312 125.91351563 3.28515625 126.73828125 C-5.69070336 132.91785642 -15.08305583 132.37143108 -25.5625 132.1875 C-27.06313759 132.17242392 -28.56378985 132.15874069 -30.06445312 132.14648438 C-33.70994452 132.11371482 -37.35487635 132.06209479 -41 132 C-40.23122098 127.16309864 -38.51618095 125.21763728 -35 122 C-33.49455541 120.50546443 -31.99500836 119.00497508 -30.5 117.5 C-29.71882813 116.72011719 -28.93765625 115.94023437 -28.1328125 115.13671875 C-26.53723076 113.5382147 -24.9531456 111.9282205 -23.375 110.3125 C-20.90351168 107.90605084 -18.32111203 105.69369809 -15.6875 103.46875 C-14.23686804 102.20616292 -12.85986382 100.85986382 -11.5 99.5 C-2.08426966 90.08426966 -2.08426966 90.08426966 4.57421875 89.90234375 C5.94534658 89.90896756 7.31645717 89.92085802 8.6875 89.9375 C9.38939453 89.94201172 10.09128906 89.94652344 10.81445312 89.95117188 C12.54300538 89.96293073 14.27151365 89.98086546 16 90 C15.53118733 87.93521999 15.53118733 87.93521999 14 86 C10.63906542 85.18071646 10.63906542 85.18071646 6.75 84.9375 C1.48970748 84.47488534 -2.48789066 83.85083272 -7 81 C-7.33 80.01 -7.66 79.02 -8 78 C-8.5775 77.731875 -9.155 77.46375 -9.75 77.1875 C-12.40789106 75.78472416 -13.80504826 73.9078071 -15.6484375 71.578125 C-17.81088491 69.05318641 -20.42599606 67.0913782 -23 65 C-24.68662458 63.35353315 -26.35511706 61.68816933 -28 60 C-28.763125 59.278125 -29.52625 58.55625 -30.3125 57.8125 C-32 56 -32 56 -32 54 C-32.58265625 53.74476562 -33.1653125 53.48953125 -33.765625 53.2265625 C-36.21388223 51.88258913 -37.81743248 50.38189704 -39.75 48.375 C-40.36359375 47.74335937 -40.9771875 47.11171875 -41.609375 46.4609375 C-42.06828125 45.97882813 -42.5271875 45.49671875 -43 45 C-42.34 43.68 -41.68 42.36 -41 41 C-36.53427636 40.95041052 -32.06870039 40.914191 -27.6027832 40.89013672 C-26.08485114 40.88010455 -24.56693827 40.86647562 -23.04907227 40.84912109 C-20.8620936 40.82474965 -18.67537136 40.81348905 -16.48828125 40.8046875 C-15.17384033 40.79421387 -13.85939941 40.78374023 -12.50512695 40.77294922 C-6.4896493 41.1626124 -3.34510996 43.27290558 1 47.3125 C1.87269531 48.12203125 2.74539062 48.9315625 3.64453125 49.765625 C8.12338359 54.01422125 12.25362243 58.41178237 16.296875 63.0703125 C19.30375103 66.4771858 22.21560197 69.47706798 26 72 C25.36253065 63.87226573 21.62866029 60.49137589 16 55 C14.33333333 53.33333333 12.66666667 51.66666667 11 50 C10.34386719 49.37867188 9.68773437 48.75734375 9.01171875 48.1171875 C8.30660156 47.43914062 7.60148437 46.76109375 6.875 46.0625 C6.21242187 45.43472656 5.54984375 44.80695312 4.8671875 44.16015625 C0.29733264 38.87327395 -0.42997859 34.23289523 -0.29296875 27.5390625 C-0.28872391 26.74849457 -0.28447906 25.95792664 -0.28010559 25.1434021 C-0.26341301 22.6369106 -0.22577983 20.13124539 -0.1875 17.625 C-0.17244092 15.91798042 -0.15875466 14.21094815 -0.14648438 12.50390625 C-0.11354056 8.33562275 -0.06182493 4.16795111 0 0 Z " fill="#F7F7FB" transform="translate(57,19)"/>
<path d="M0 0 C1.01984985 0.44375977 1.01984985 0.44375977 2.06030273 0.89648438 C5.77434593 2.65995265 7.46354329 3.94115216 9.0625 7.6875 C10.38983296 8.36603477 11.72368641 9.03190836 13.0625 9.6875 C14.80078125 11.67578125 14.80078125 11.67578125 16.375 14 C16.90738281 14.75925781 17.43976563 15.51851562 17.98828125 16.30078125 C19.0625 18.6875 19.0625 18.6875 19.02734375 21.27734375 C17.74967597 24.46892682 16.28394304 25.2671622 13.3125 26.9375 C12.45140625 27.43765625 11.5903125 27.9378125 10.703125 28.453125 C8.07939994 29.67960003 5.9426915 30.4076824 3.0625 30.6875 C0.13885027 28.83347822 -1.71968703 26.98793169 -3.75 24.1875 C-8.22557453 19.07255768 -14.75031493 16.88333726 -21.34375 15.75390625 C-26.10770783 15.63193745 -29.98169178 17.0935274 -33.9375 19.6875 C-36.57817106 22.5077633 -37.86605828 25.25866555 -38.0625 29.1875 C-35.29499895 35.33750233 -31.81595546 38.64700955 -25.5 41.125 C-22.09973243 42.32371184 -18.68446955 43.44765487 -15.25195312 44.54980469 C13.09041423 53.68486965 13.09041423 53.68486965 21.0625 67.6875 C22.37755245 72.08222315 22.2844423 76.38513818 22.3125 80.9375 C22.333125 81.75863281 22.35375 82.57976562 22.375 83.42578125 C22.43241377 92.48280326 19.82898293 98.86718222 13.65234375 105.50390625 C3.65009518 113.93717466 -7.0072506 115.88163987 -19.6875 115.9375 C-21.42 115.9684375 -21.42 115.9684375 -23.1875 116 C-29.88867507 116.03059897 -34.86182715 115.54624262 -40.9375 112.6875 C-41.88496094 112.25050781 -42.83242188 111.81351562 -43.80859375 111.36328125 C-53.48288336 106.22427505 -62.25968932 99.91758882 -66.1875 89.3125 C-66.435 88.44625 -66.6825 87.58 -66.9375 86.6875 C-62.77659314 81.97180555 -57.77421437 78.11338441 -51.9375 75.6875 C-49.125 76.0234375 -49.125 76.0234375 -46.9375 76.6875 C-46.9375 77.3475 -46.9375 78.0075 -46.9375 78.6875 C-46.2775 78.6875 -45.6175 78.6875 -44.9375 78.6875 C-43.8636293 80.19270381 -42.85372499 81.7437635 -41.875 83.3125 C-38.24275127 88.5204493 -35.05742925 92.53589697 -28.9375 94.6875 C-21.64928946 95.89576503 -13.42234382 96.24093161 -6.9375 92.3125 C-3.57809227 89.47632204 -3.57809227 89.47632204 -2.69921875 85.515625 C-2.58168643 81.43292327 -2.73709606 78.24652151 -4.125 74.375 C-8.63147965 70.06880834 -14.10160791 68.63905234 -19.9375 66.6875 C-22.33479118 65.83743351 -24.73064576 64.98330403 -27.125 64.125 C-28.85556641 63.51205078 -28.85556641 63.51205078 -30.62109375 62.88671875 C-41.16303191 59.07473404 -41.16303191 59.07473404 -45.9375 56.6875 C-45.9375 56.0275 -45.9375 55.3675 -45.9375 54.6875 C-46.68 54.44 -47.4225 54.1925 -48.1875 53.9375 C-51.16773087 52.58284961 -52.83669252 51.1773459 -54.9375 48.6875 C-54.9375 48.0275 -54.9375 47.3675 -54.9375 46.6875 C-55.5975 46.6875 -56.2575 46.6875 -56.9375 46.6875 C-61.40482132 36.37676284 -62.51340979 27.65648565 -58.84375 16.90234375 C-54.53899898 6.3816807 -46.37722935 2.11332241 -36.4375 -2.11328125 C-24.56750791 -6.18034327 -11.36462062 -4.96478446 0 0 Z " fill="#4253E7" transform="translate(542.9375,50.3125)"/>
<path d="M0 0 C1.2694043 -0.00193359 1.2694043 -0.00193359 2.56445312 -0.00390625 C3.44939453 -0.00003906 4.33433594 0.00382812 5.24609375 0.0078125 C6.13490234 0.00394531 7.02371094 0.00007813 7.93945312 -0.00390625 C8.78443359 -0.00261719 9.62941406 -0.00132813 10.5 0 C11.66704468 0.00169189 11.66704468 0.00169189 12.85766602 0.00341797 C14.68359375 0.1328125 14.68359375 0.1328125 15.68359375 1.1328125 C15.77230648 4.16259054 15.79878725 7.16948272 15.78125 10.19921875 C15.77983505 11.10784164 15.7784201 12.01646454 15.77696228 12.95262146 C15.77134568 15.86688471 15.7587904 18.78107231 15.74609375 21.6953125 C15.74108089 23.66601452 15.73651761 25.63671774 15.73242188 27.60742188 C15.72137086 32.44924809 15.70409513 37.29101745 15.68359375 42.1328125 C16.84266235 41.18764771 16.84266235 41.18764771 18.02514648 40.22338867 C20.5336514 38.25072565 22.88916133 36.84507692 25.74609375 35.4453125 C26.58269531 35.02894531 27.41929687 34.61257812 28.28125 34.18359375 C36.30277544 30.67499157 47.47050146 30.34167586 55.703125 33.44921875 C62.33881308 36.40620182 67.67930559 40.03375438 71.68359375 46.1328125 C72.76640625 47.525 72.76640625 47.525 73.87109375 48.9453125 C78.4072841 56.92275069 79.18576924 64.96901223 79.05859375 74.0078125 C79.04626709 75.06774414 79.03394043 76.12767578 79.02124023 77.21972656 C78.72983182 90.78536269 76.35836713 100.08091152 66.68359375 110.1328125 C55.81399522 118.7473076 45.54641571 120.23607175 32.06201172 119.43164062 C26.90289743 118.7834415 22.52889962 116.58251077 18.68359375 113.1328125 C17.41015625 110.9296875 17.41015625 110.9296875 16.68359375 109.1328125 C16.02359375 109.1328125 15.36359375 109.1328125 14.68359375 109.1328125 C14.72484375 110.2465625 14.76609375 111.3603125 14.80859375 112.5078125 C14.68359375 116.1328125 14.68359375 116.1328125 12.68359375 118.1328125 C10.82006836 118.37573242 10.82006836 118.37573242 8.5859375 118.36328125 C7.78478516 118.36134766 6.98363281 118.35941406 6.15820312 118.35742188 C5.32095703 118.34517578 4.48371094 118.33292969 3.62109375 118.3203125 C2.77998047 118.31966797 1.93886719 118.31902344 1.07226562 118.31835938 C-5.17617441 118.27304434 -5.17617441 118.27304434 -6.31640625 117.1328125 C-6.41215934 115.62730076 -6.43828812 114.1173022 -6.43666077 112.60874939 C-6.43803543 111.63133286 -6.4394101 110.65391632 -6.44082642 109.6468811 C-6.43723114 108.56579071 -6.43363586 107.48470032 -6.42993164 106.37084961 C-6.43007767 105.2392894 -6.43022369 104.10772919 -6.43037415 102.94187927 C-6.42967444 99.18128579 -6.42187936 95.42074113 -6.4140625 91.66015625 C-6.41219852 89.06083707 -6.41077453 86.46151753 -6.40977478 83.86219788 C-6.40633966 77.70692673 -6.39844881 71.5516759 -6.38842529 65.39641243 C-6.37726319 58.39047904 -6.37175346 51.38454483 -6.36672986 44.37860477 C-6.35626617 29.96333117 -6.33866733 15.54807246 -6.31640625 1.1328125 C-3.98476789 -0.03300668 -2.59487143 0.00375641 0 0 Z M20.37109375 58.5703125 C19.81421875 59.4159375 19.25734375 60.2615625 18.68359375 61.1328125 C17.84828125 62.3703125 17.84828125 62.3703125 16.99609375 63.6328125 C13.63639074 70.03224681 14.39160346 77.22347314 15.68359375 84.1328125 C17.98367033 89.8713874 21.37972091 94.9859358 26.69921875 98.29296875 C31.98654387 100.53071462 36.90607645 100.6449785 42.37109375 99.0703125 C49.42138313 94.94655833 55.06625128 90.11223267 57.68359375 82.1328125 C58.72443511 74.16215896 58.60922095 66.74310047 53.68359375 60.1328125 C49.77752019 55.50719907 46.0565677 52.52291668 39.9140625 51.8125 C31.8706324 51.50897434 26.00932485 52.62731215 20.37109375 58.5703125 Z " fill="#3F50E6" transform="translate(760.31640625,46.8671875)"/>
<path d="M0 0 C3.49956802 3.77263493 5.87122142 6.9124598 7.02734375 12.05078125 C2.26669769 15.87166341 -2.13295592 19.14164845 -7.97265625 21.05078125 C-10.46232374 20.76938205 -11.60443113 20.44667647 -13.32421875 18.59765625 C-13.74445313 18.0046875 -14.1646875 17.41171875 -14.59765625 16.80078125 C-19.16178785 11.29430407 -24.37643234 8.50680964 -31.484375 7.60546875 C-38.44032173 7.38370637 -43.44170383 7.67747003 -48.97265625 12.05078125 C-50.71248352 15.53043579 -50.55824196 19.25434354 -49.97265625 23.05078125 C-45.51385734 28.91091697 -39.51305046 31.39861134 -32.66015625 33.55078125 C-31.31739227 33.98600523 -29.97494055 34.42219388 -28.6328125 34.859375 C-26.82103516 35.44912109 -26.82103516 35.44912109 -24.97265625 36.05078125 C-22.27091202 36.98882685 -19.63360493 37.99557746 -16.97265625 39.05078125 C-15.88597656 39.47617188 -15.88597656 39.47617188 -14.77734375 39.91015625 C-6.64821172 43.27203458 1.33663648 48.38730091 6.02734375 56.05078125 C9.60458022 66.10869613 9.69981206 78.84304138 5.40234375 88.69140625 C0.50189285 97.10013449 -7.0997284 101.51384863 -15.97265625 105.05078125 C-31.43098471 108.71762551 -48.05219167 107.35045687 -61.7421875 99.453125 C-63.94186604 98.07790355 -66.02631497 96.76577447 -67.97265625 95.05078125 C-67.97265625 94.39078125 -67.97265625 93.73078125 -67.97265625 93.05078125 C-68.55660156 92.80714844 -69.14054688 92.56351562 -69.7421875 92.3125 C-74.24052642 89.76790548 -78.1004505 84.83981127 -79.64453125 79.90234375 C-79.91015625 77.98828125 -79.91015625 77.98828125 -79.97265625 75.05078125 C-78.0741593 73.86422065 -76.17484098 72.67952289 -74.26953125 71.50390625 C-72.75824917 70.54778902 -71.26732591 69.55857231 -69.80078125 68.53515625 C-69.115 68.0659375 -68.42921875 67.59671875 -67.72265625 67.11328125 C-67.09875 66.67113281 -66.47484375 66.22898437 -65.83203125 65.7734375 C-63.97265625 65.05078125 -63.97265625 65.05078125 -61.9140625 65.65625 C-59.62092007 67.30343682 -58.59190197 68.87465305 -57.16015625 71.30078125 C-54.33138101 75.74395852 -51.25569164 78.99807784 -46.97265625 82.05078125 C-46.23789063 82.58960938 -45.503125 83.1284375 -44.74609375 83.68359375 C-41.20579561 85.42881114 -38.02866588 85.58424743 -34.16015625 85.55078125 C-33.45036621 85.54868652 -32.74057617 85.5465918 -32.00927734 85.54443359 C-24.82875632 85.32844088 -20.88406959 82.96219459 -15.97265625 78.05078125 C-15.13772953 73.16426275 -15.40708102 69.16098449 -17.66015625 64.73828125 C-22.01598914 60.43057911 -28.29940096 58.94493344 -33.97265625 57.05078125 C-36.52985137 56.19032521 -39.08555938 55.32610059 -41.63842773 54.45288086 C-43.36078166 53.86584112 -45.08674552 53.28925396 -46.81665039 52.72485352 C-52.40448821 50.83632759 -57.1181885 48.39201608 -61.97265625 45.05078125 C-63.02453125 44.32890625 -64.07640625 43.60703125 -65.16015625 42.86328125 C-71.31541732 36.70802018 -74.05378053 28.91344286 -74.22265625 20.30078125 C-74.10299314 11.33934364 -70.68120587 2.79288348 -64.328125 -3.60546875 C-45.38654412 -19.2372576 -17.06922275 -16.86642011 0 0 Z " fill="#4555E7" transform="translate(295.97265625,59.94921875)"/>
<path d="M0 0 C8.37772666 5.26402638 14.56389834 14.4805127 16.79296875 24.11328125 C17.73778864 30.40865725 17.73490827 36.89369947 17.35546875 43.23828125 C15.28764737 45.30610263 10.90412301 44.47209812 8.05078125 44.51953125 C7.21586151 44.53794067 6.38094177 44.5563501 5.52072144 44.57531738 C2.84071103 44.63425377 0.16063535 44.68697013 -2.51953125 44.73828125 C-6.03789634 44.80590566 -9.55605664 44.87963549 -13.07421875 44.95703125 C-14.2930928 44.97739441 -14.2930928 44.97739441 -15.53659058 44.99816895 C-18.80875457 45.07039926 -21.51984194 45.19671815 -24.64453125 46.23828125 C-27.38318412 46.30879239 -30.09480713 46.3318589 -32.83203125 46.30078125 C-33.58162109 46.29626953 -34.33121094 46.29175781 -35.10351562 46.28710938 C-36.95055508 46.27534479 -38.79755338 46.2574099 -40.64453125 46.23828125 C-38.18187716 52.55313167 -35.82905387 57.58218115 -29.890625 61.3515625 C-26.91363793 62.52682522 -24.40072395 62.50304977 -21.20703125 62.48828125 C-19.53833984 62.49601562 -19.53833984 62.49601562 -17.8359375 62.50390625 C-14.66627388 62.24009092 -12.46173793 61.69034422 -9.64453125 60.23828125 C-9.31453125 59.57828125 -8.98453125 58.91828125 -8.64453125 58.23828125 C-7.98453125 58.23828125 -7.32453125 58.23828125 -6.64453125 58.23828125 C-6.31453125 57.24828125 -5.98453125 56.25828125 -5.64453125 55.23828125 C-4.98453125 55.23828125 -4.32453125 55.23828125 -3.64453125 55.23828125 C-3.31453125 54.24828125 -2.98453125 53.25828125 -2.64453125 52.23828125 C0.91782553 50.97940329 2.16287087 51.14791542 5.65234375 52.78515625 C6.8129786 53.50427397 7.96392694 54.2392246 9.10546875 54.98828125 C9.69457031 55.34921875 10.28367187 55.71015625 10.890625 56.08203125 C15.21876139 58.82815917 15.21876139 58.82815917 16.35546875 62.23828125 C13.82848596 69.81922961 5.1443676 74.76751471 -1.60546875 78.25 C-8.156688 81.18231429 -14.33226453 81.4724277 -21.39453125 81.55078125 C-22.6784375 81.59428711 -22.6784375 81.59428711 -23.98828125 81.63867188 C-34.47332335 81.74193365 -43.50165235 76.66354914 -51.33203125 69.92578125 C-60.45088547 59.32819391 -63.27344448 47.94652442 -62.98046875 34.21875 C-62.03058937 22.96378386 -57.39854145 11.34529514 -48.97265625 3.7265625 C-33.98239109 -8.56917153 -16.48834493 -9.29906264 0 0 Z M-39.76953125 22.36328125 C-40.63103826 25.19394714 -40.71355366 27.30975894 -40.64453125 30.23828125 C-28.28444262 30.41155352 -15.98630611 29.87422854 -3.64453125 29.23828125 C-4.94696148 23.74793801 -7.19531972 19.21758592 -11.66015625 15.609375 C-16.018731 12.93479504 -20.14520839 11.31279447 -25.3046875 11.62109375 C-31.38333455 13.22447644 -36.28775646 17.2430242 -39.76953125 22.36328125 Z " fill="#4253E7" transform="translate(908.64453125,84.76171875)"/>
<path d="M0 0 C6.43868766 4.4625643 10.72571863 11.70313947 12.55099487 19.29034424 C13.02840918 22.17144367 13.1270679 24.86423145 13.12939453 27.78417969 C13.13254669 28.9217572 13.13569885 30.05933472 13.13894653 31.23138428 C13.13591019 33.05817719 13.13591019 33.05817719 13.1328125 34.921875 C13.13376923 36.17760315 13.13472595 37.4333313 13.13571167 38.72711182 C13.13639142 41.37654083 13.13505481 44.02587722 13.13037109 46.67529297 C13.12465082 50.07732177 13.12797158 53.47927208 13.13394356 56.88129807 C13.13841353 60.12399326 13.13529063 63.36667879 13.1328125 66.609375 C13.13483673 67.83533386 13.13686096 69.06129272 13.13894653 70.32440186 C13.13421829 72.01185516 13.13421829 72.01185516 13.12939453 73.73339844 C13.12859894 74.72869568 13.12780334 75.72399292 13.12698364 76.74945068 C13 79 13 79 12 80 C9.52642763 80.15349136 7.09995481 80.23159885 4.625 80.25 C3.93921875 80.270625 3.2534375 80.29125 2.546875 80.3125 C-2.49533106 80.35173896 -2.49533106 80.35173896 -4.93359375 78.65234375 C-6.32241261 76.5004376 -6.65975885 74.51778452 -7 72 C-7.680625 72.5775 -8.36125 73.155 -9.0625 73.75 C-16.58360552 79.51084678 -22.57843449 81.18992526 -31.875 81.25 C-32.66519531 81.270625 -33.45539063 81.29125 -34.26953125 81.3125 C-39.30640419 81.34602328 -42.59211435 80.684205 -47 78 C-48.485 77.13375 -48.485 77.13375 -50 76.25 C-54.57376478 72.81967642 -58.99202357 68.45947508 -61 63 C-61.21882476 60.16380373 -61.32467189 57.45861593 -61.3125 54.625 C-61.32861328 53.8825 -61.34472656 53.14 -61.36132812 52.375 C-61.36646729 46.55746788 -60.13740288 42.54217663 -56.30859375 37.98828125 C-46.8620238 29.52778332 -35.25788511 28.75171171 -23 29 C-17.95422946 29.36624307 -12.98130213 30.12265276 -8 31 C-8.56879093 29.24521948 -9.15570656 27.49630842 -9.75 25.75 C-10.07484375 24.77546875 -10.3996875 23.8009375 -10.734375 22.796875 C-12.77137063 18.29536614 -15.58680954 15.7430667 -20.1875 14 C-24.87306855 12.58738213 -27.73444878 13.39665403 -32.01171875 15.60546875 C-34.00629526 17.00441534 -35.1572603 18.2807845 -36.5625 20.25 C-39 23 -39 23 -42.625 23.625 C-48.03183958 23.23139865 -53.03341857 21.04506294 -58 19 C-57.72792791 12.47026983 -55.26447282 8.84372206 -51 4 C-50.42378906 3.32839844 -49.84757812 2.65679687 -49.25390625 1.96484375 C-35.48833162 -10.0353019 -14.95056267 -8.17297426 0 0 Z M-39 48 C-41.31201886 50.86710308 -41.31201886 50.86710308 -41 54.375 C-39.99272365 58.02637677 -39.01513549 59.81948788 -35.93359375 62.05859375 C-30.86158712 64.52799496 -25.12007266 64.44214649 -19.6875 63.3125 C-14.30969598 61.39836636 -11.86429601 59.63918209 -9.1875 54.5625 C-8.13089032 51.39267097 -7.70122592 49.2865149 -8 46 C-13.45955587 44.18257128 -18.32313952 43.63457358 -24.0625 43.625 C-24.83916016 43.60050781 -25.61582031 43.57601562 -26.41601562 43.55078125 C-31.75055956 43.52367942 -34.78657358 44.44712597 -39 48 Z " fill="#3F4FE6" transform="translate(456,85)"/>
<path d="M0 0 C6.73307525 4.31715121 9.95773751 9.30912235 12 17 C12.50994147 21.92343879 12.46913158 26.81537521 12.390625 31.7578125 C12.38314715 33.15598738 12.37746154 34.55417287 12.37347412 35.95236206 C12.35833872 39.5988963 12.31916535 43.24477405 12.2746582 46.89105225 C12.23344093 50.62519454 12.21540717 54.35944488 12.1953125 58.09375 C12.15265592 65.39612979 12.08455615 72.69797226 12 80 C9.37472811 80.05382106 6.75055287 80.09358313 4.125 80.125 C3.37863281 80.14175781 2.63226563 80.15851563 1.86328125 80.17578125 C-0.09194461 80.1933959 -2.04742021 80.10320189 -4 80 C-6.35953094 77.64046906 -6.49141413 76.22104383 -7 73 C-7.78375 73.495 -8.5675 73.99 -9.375 74.5 C-12 76 -12 76 -14 76 C-14.495 77.485 -14.495 77.485 -15 79 C-20.57443661 81.19868217 -25.99486767 81.3973772 -31.9375 81.4375 C-32.79279297 81.47037109 -33.64808594 81.50324219 -34.52929688 81.53710938 C-41.02793321 81.59163645 -44.8720293 79.89840151 -50 76 C-51.051875 75.2575 -52.10375 74.515 -53.1875 73.75 C-58.92690813 68.13813427 -61.30810669 63.16088466 -61.625 55.0625 C-61.34690026 48.45228319 -60.14567758 43.2447642 -56 38 C-46.75808642 29.5663146 -34.46260947 28.72419112 -22.44921875 28.83203125 C-17.57921627 29.16601866 -12.79090261 30.09207937 -8 31 C-8.86352057 23.24056083 -8.86352057 23.24056083 -13.1796875 17.08984375 C-18.03776193 14.55744325 -22.49764386 13.06563764 -28 14 C-31.97725375 15.58416039 -34.47199104 17.18067575 -36.8125 20.8125 C-39 23 -39 23 -41.18359375 23.19921875 C-46.87020474 22.75779233 -51.77585282 21.22509973 -57 19 C-57.51117861 13.63262463 -56.3307423 11.18477878 -53 7 C-52.57203125 6.43152344 -52.1440625 5.86304687 -51.703125 5.27734375 C-38.76212951 -9.89830818 -15.92692796 -9.24458753 0 0 Z M-39 48 C-40.42977819 50.6453574 -40.40885873 53.04145282 -40 56 C-37.78770444 60.27480669 -37.78770444 60.27480669 -34 63 C-31.58656122 63.1501182 -29.1679357 63.2215537 -26.75 63.25 C-24.79320312 63.28867188 -24.79320312 63.28867188 -22.796875 63.328125 C-17.4849745 62.86907187 -14.2533412 61.38883755 -10.6875 57.4375 C-7.88313485 53.38675034 -7.90875488 50.92723625 -8 46 C-13.28140969 44.26269418 -17.9526161 43.63492376 -23.5 43.625 C-24.22058594 43.60050781 -24.94117188 43.57601562 -25.68359375 43.55078125 C-31.20909323 43.52080567 -34.51480098 44.72966233 -39 48 Z " fill="#3E4EE6" transform="translate(372,85)"/>
<path d="M0 0 C7.70709137 4.87661091 14.45562086 10.93237568 17.6484375 19.67578125 C17.9609375 23.23828125 17.9609375 23.23828125 17.6484375 25.67578125 C11.59269325 27.74023952 5.06063561 29.51643205 -1.3515625 28.67578125 C-3.4666016 26.87036643 -4.64514836 25.0595999 -6.0859375 22.69140625 C-8.05885186 19.54935745 -9.81525239 18.72357684 -13.3515625 17.67578125 C-20.47798433 16.77860654 -26.09248738 17.35264937 -32.4140625 20.80078125 C-36.55348479 24.80667379 -38.50254512 29.62261937 -38.91796875 35.33203125 C-38.93759352 36.94649584 -38.93608928 38.56134765 -38.9140625 40.17578125 C-38.93791016 40.97886719 -38.96175781 41.78195313 -38.98632812 42.609375 C-38.97133242 48.77760707 -37.2496925 52.90486412 -33.3515625 57.67578125 C-29.17370274 61.70788053 -25.37839009 63.40934904 -19.5546875 63.74609375 C-13.66875265 63.55824477 -9.59701654 61.6715027 -5.3515625 57.67578125 C-4.8565625 56.68578125 -4.8565625 56.68578125 -4.3515625 55.67578125 C-3.6915625 55.67578125 -3.0315625 55.67578125 -2.3515625 55.67578125 C-2.0215625 54.35578125 -1.6915625 53.03578125 -1.3515625 51.67578125 C4.67452724 49.62080134 10.78692732 52.80921617 16.2734375 55.36328125 C17.0571875 55.79640625 17.8409375 56.22953125 18.6484375 56.67578125 C18.16833746 61.71683169 16.65759634 64.63491081 13.6484375 68.67578125 C13.0503125 69.52140625 12.4521875 70.36703125 11.8359375 71.23828125 C5.974275 77.76984803 -2.77415898 83.01961 -11.60302734 83.90039062 C-24.6270337 84.53129345 -34.32692094 84.34772359 -45.3515625 76.67578125 C-46.14820313 76.1240625 -46.94484375 75.57234375 -47.765625 75.00390625 C-55.55972156 68.87371795 -60.87334606 59.45664671 -62.3515625 49.67578125 C-62.59493392 46.48732592 -62.68761546 43.31033834 -62.7265625 40.11328125 C-62.74058105 39.32187744 -62.75459961 38.53047363 -62.76904297 37.71508789 C-62.68765307 27.64673987 -58.90640649 17.29771272 -51.734375 10.0390625 C-50.31621768 8.86432024 -48.83657204 7.76478825 -47.3515625 6.67578125 C-46.94292969 6.21429688 -46.53429687 5.7528125 -46.11328125 5.27734375 C-34.26250922 -5.49608537 -13.95491851 -6.93836985 0 0 Z " fill="#4857E7" transform="translate(634.3515625,82.32421875)"/>
<path d="M0 0 C0 7.92 0 15.84 0 24 C-3.63 24 -7.26 24 -11 24 C-15.22277034 25.38559652 -18.03383228 26.7216041 -21 30 C-21.66 30 -22.32 30 -23 30 C-26.68245347 38.94310129 -28.11171842 47.12554641 -28.28125 56.7421875 C-28.31899958 58.40104191 -28.35676031 60.05989607 -28.39453125 61.71875 C-28.44840921 64.31280089 -28.50063427 66.90687964 -28.55224609 69.50097656 C-28.60377874 72.01898444 -28.66104277 74.53681479 -28.71875 77.0546875 C-28.73232544 77.83689667 -28.74590088 78.61910583 -28.7598877 79.42501831 C-28.88704518 84.88704518 -28.88704518 84.88704518 -30 86 C-36.93 86 -43.86 86 -51 86 C-51 58.61 -51 31.22 -51 3 C-46.13189277 1.05275711 -43.44347499 0.72989824 -38.3125 0.75 C-37.29833008 0.73839844 -37.29833008 0.73839844 -36.26367188 0.7265625 C-31.2534965 0.7465035 -31.2534965 0.7465035 -29 3 C-28.5859375 5.6015625 -28.5859375 5.6015625 -28.375 8.625 C-28.30023437 9.62789062 -28.22546875 10.63078125 -28.1484375 11.6640625 C-28.07496094 12.82035156 -28.07496094 12.82035156 -28 14 C-27.41605469 13.22076172 -27.41605469 13.22076172 -26.8203125 12.42578125 C-19.5856447 3.40745111 -11.47797933 0 0 0 Z " fill="#3D4EE6" transform="translate(711,79)"/>
<path d="M0 0 C0.74636719 0.00193359 1.49273438 0.00386719 2.26171875 0.00585938 C3.02613281 0.01810547 3.79054688 0.03035156 4.578125 0.04296875 C5.35800781 0.04361328 6.13789062 0.04425781 6.94140625 0.04492188 C12.68754793 0.08989168 12.68754793 0.08989168 13.828125 1.23046875 C13.92320321 3.81685913 13.95368876 6.37645435 13.94165039 8.96313477 C13.94179642 9.77282715 13.94194244 10.58251953 13.9420929 11.41674805 C13.94139354 14.10598383 13.9336001 16.79515124 13.92578125 19.484375 C13.92391715 21.34382591 13.92249321 23.20327731 13.92149353 25.06272888 C13.91766771 29.96675971 13.90783688 34.87076111 13.89678955 39.77478027 C13.88657681 44.77497967 13.88199621 49.77518381 13.87695312 54.77539062 C13.86621467 64.59376296 13.84913748 74.41211341 13.828125 84.23046875 C10.37067478 84.45574171 6.91225475 84.65780419 3.453125 84.85546875 C1.97585938 84.95214844 1.97585938 84.95214844 0.46875 85.05078125 C-0.47226562 85.10234375 -1.41328125 85.15390625 -2.3828125 85.20703125 C-3.25212402 85.25939941 -4.12143555 85.31176758 -5.01708984 85.36572266 C-7.171875 85.23046875 -7.171875 85.23046875 -9.171875 83.23046875 C-9.35975705 80.64038566 -9.42375266 78.15815942 -9.39892578 75.56787109 C-9.39921783 74.77753983 -9.39950989 73.98720856 -9.39981079 73.17292786 C-9.39841462 70.55397661 -9.38284005 67.93530795 -9.3671875 65.31640625 C-9.36345839 63.50322627 -9.36061094 61.69004428 -9.35861206 59.87686157 C-9.35096757 55.09939024 -9.33131212 50.32204008 -9.3092041 45.5446167 C-9.2887632 40.67168823 -9.27961411 35.79874022 -9.26953125 30.92578125 C-9.24806697 21.36062378 -9.21392123 11.79555633 -9.171875 2.23046875 C-5.96475552 0.89666267 -3.48696756 -0.02108053 0 0 Z " fill="#3B4CE6" transform="translate(727.171875,79.76953125)"/>
<path d="M0 0 C4.59769953 0.73750192 6.40802716 1.95903915 9.625 5.375 C10.38039063 6.16648437 11.13578125 6.95796875 11.9140625 7.7734375 C12.60242188 8.50820313 13.29078125 9.24296875 14 10 C14.58523437 10.54914062 15.17046875 11.09828125 15.7734375 11.6640625 C17 13 17 13 17 15 C17.5775 15.2475 18.155 15.495 18.75 15.75 C21.32939979 17.18299988 23.06121592 18.78424676 25 21 C25 21.66 25 22.32 25 23 C25.61875 23.2475 26.2375 23.495 26.875 23.75 C29.35068687 25.20628639 29.95125002 26.37812506 31 29 C31.66 29 32.32 29 33 29 C34.47265625 30.3203125 34.47265625 30.3203125 36.0625 32.125 C36.58972656 32.70507812 37.11695313 33.28515625 37.66015625 33.8828125 C40.60165371 38.53089304 40.11898503 44.25374213 40.09765625 49.5859375 C40.0962413 50.28772125 40.09482635 50.989505 40.09336853 51.71255493 C40.0878129 53.93341504 40.07526892 56.15417084 40.0625 58.375 C40.05747926 59.88932145 40.05291736 61.4036445 40.04882812 62.91796875 C40.03785807 66.61201252 40.02062449 70.30599606 40 74 C34.79724873 72.50814746 31.79200356 69.22682814 28.08984375 65.48828125 C27.44052383 64.84183151 26.79120392 64.19538177 26.12220764 63.52934265 C24.75282926 62.1620019 23.3872167 60.79088066 22.02514648 59.41625977 C19.95160027 57.32670911 17.86262223 55.25356887 15.77148438 53.18164062 C14.43914173 51.84731448 13.10773058 50.51205744 11.77734375 49.17578125 C11.15746078 48.56197098 10.53757782 47.94816071 9.89891052 47.31575012 C3.68130552 40.99749725 0.40581391 35.67795044 0.390625 26.66015625 C0.37408875 25.89319931 0.35755249 25.12624237 0.34051514 24.33604431 C0.29233458 21.91144568 0.27073244 19.48747273 0.25 17.0625 C0.22181504 15.40817215 0.1918841 13.75387307 0.16015625 12.09960938 C0.08658467 8.06645786 0.03682827 4.03364757 0 0 Z " fill="#3748E6" transform="translate(57,19)"/>
<path d="M0 0 C2.18676758 0.36254883 2.18676758 0.36254883 4 1 C4.04969106 5.16258147 4.08585642 9.32500261 4.10986328 13.48779297 C4.11987856 14.90188609 4.13349474 16.31595873 4.15087891 17.72998047 C4.17532559 19.77055946 4.18652784 21.81086303 4.1953125 23.8515625 C4.21102295 25.68968506 4.21102295 25.68968506 4.22705078 27.56494141 C3.87571995 32.88023688 2.62853802 36.80737915 -0.9921875 40.73828125 C-1.61448242 41.41584473 -2.23677734 42.0934082 -2.87792969 42.79150391 C-6.90381326 46.98135006 -10.99662614 51.09876341 -15.125 55.1875 C-16.00542969 56.06341797 -16.88585937 56.93933594 -17.79296875 57.84179688 C-19.47065853 59.51063007 -21.14930887 61.17849839 -22.82910156 62.84521484 C-25.22564824 65.22397339 -27.61473125 67.60994155 -30 70 C-31 71 -31 71 -33.5625 71.0625 C-34.366875 71.041875 -35.17125 71.02125 -36 71 C-35.95548065 66.60678448 -35.88527426 62.21490877 -35.79248047 57.82250977 C-35.76446516 56.33206297 -35.74315506 54.84147297 -35.72900391 53.35083008 C-35.59370008 39.89711984 -33.77120185 32.24399083 -24.05355835 22.53083801 C-22.43853457 20.95069499 -20.81321628 19.38163178 -19.1875 17.8125 C-18.10762035 16.7491665 -17.02883572 15.68471974 -15.95117188 14.61914062 C-12.99929989 11.71154531 -10.00733205 8.8502047 -7 6 C-6.28021973 5.30438965 -5.56043945 4.6087793 -4.81884766 3.89208984 C-2.98828125 2.19921875 -2.98828125 2.19921875 0 0 Z " fill="#4454E7" transform="translate(93,121)"/>
<path d="M0 0 C4.69544874 -0.17420329 9.38898279 -0.3005956 14.08691406 -0.38452148 C15.68164872 -0.41953336 17.27616177 -0.46716172 18.87011719 -0.52807617 C21.17438546 -0.61387339 23.47566555 -0.65287324 25.78125 -0.68359375 C26.48366821 -0.71972275 27.18608643 -0.75585175 27.90979004 -0.79307556 C33.44342378 -0.79737746 36.13520486 1.24497294 40.05410767 5.02516174 C40.69625214 5.67685837 41.33839661 6.32855499 42 7 C43.21515264 8.16197524 44.43056094 9.32368319 45.64624023 10.48510742 C46.86985556 11.68902415 48.09056451 12.89590076 49.30859375 14.10546875 C49.96078384 14.75195877 50.61297394 15.39844879 51.28492737 16.06452942 C52.6466437 17.41688582 54.00697934 18.7706338 55.3659668 20.12573242 C57.44983347 22.19977533 59.54412992 24.26291728 61.63867188 26.32617188 C62.96680051 27.64777992 64.29429767 28.97002293 65.62109375 30.29296875 C66.56002724 31.21338203 66.56002724 31.21338203 67.51792908 32.15238953 C68.09265457 32.73011612 68.66738007 33.30784271 69.25952148 33.90307617 C69.76611801 34.40602707 70.27271454 34.90897797 70.79466248 35.4271698 C72.19073716 37.24889059 72.59241288 38.76015336 73 41 C68.41019186 41.07447267 63.82073986 41.12875322 59.23046875 41.16479492 C57.67083606 41.17982869 56.11124528 41.20026135 54.55175781 41.22631836 C52.30262884 41.26294211 50.05406153 41.27978021 47.8046875 41.29296875 C47.1138205 41.30845261 46.42295349 41.32393646 45.71115112 41.33988953 C41.08263551 41.34147804 37.89064376 40.52231475 34 38 C33.67 37.01 33.34 36.02 33 35 C32.4225 34.731875 31.845 34.46375 31.25 34.1875 C28.59210894 32.78472416 27.19495174 30.9078071 25.3515625 28.578125 C23.18911509 26.05318641 20.57400394 24.0913782 18 22 C16.31337542 20.35353315 14.64488294 18.68816933 13 17 C12.29875 16.34 11.5975 15.68 10.875 15 C9 13 9 13 7.625 10.625 C6.15677214 8.2532473 4.79942692 6.72497533 2.8125 4.8125 C1.884375 3.884375 0.95625 2.95625 0 2 C0 1.34 0 0.68 0 0 Z " fill="#3C4DE7" transform="translate(16,62)"/>
<path d="M0 0 C2.125 0.9375 2.125 0.9375 4 2 C3.84152588 2.85158691 3.68305176 3.70317383 3.51977539 4.58056641 C3.00187484 7.98766602 2.79415096 11.26787025 2.68359375 14.7109375 C2.62075195 16.57685547 2.62075195 16.57685547 2.55664062 18.48046875 C2.51732422 19.76566406 2.47800781 21.05085938 2.4375 22.375 C2.37272461 24.33759766 2.37272461 24.33759766 2.30664062 26.33984375 C2.20087571 29.55979797 2.09878421 32.77982531 2 36 C1.34 36 0.68 36 0 36 C-0.17781006 36.66604248 -0.35562012 37.33208496 -0.53881836 38.01831055 C-2.67739524 42.38229375 -5.93632173 45.32445012 -9.37890625 48.70703125 C-10.10617416 49.43242599 -10.83344208 50.15782074 -11.58274841 50.90519714 C-13.11668816 52.4324279 -14.6542149 53.95606326 -16.19506836 55.47631836 C-18.56434263 57.8143183 -20.92266739 60.16293335 -23.27929688 62.51367188 C-24.77020965 63.99541947 -26.26172523 65.47656083 -27.75390625 66.95703125 C-28.46430557 67.66318069 -29.1747049 68.36933014 -29.90663147 69.09687805 C-30.56078537 69.74142441 -31.21493927 70.38597076 -31.88891602 71.05004883 C-32.46690445 71.62120926 -33.04489288 72.19236969 -33.64039612 72.78083801 C-35 74 -35 74 -36 74 C-37.13836751 66.7865197 -37.25818054 59.72717101 -37.3125 52.4375 C-37.34150391 51.13619141 -37.37050781 49.83488281 -37.40039062 48.49414062 C-37.40876953 47.23666016 -37.41714844 45.97917969 -37.42578125 44.68359375 C-37.44036377 43.54462646 -37.45494629 42.40565918 -37.4699707 41.23217773 C-36.69073457 35.87305711 -33.5027334 32.2332458 -29.72265625 28.52734375 C-29.12646484 27.93759766 -28.53027344 27.34785156 -27.91601562 26.74023438 C-27.30435547 26.14533203 -26.69269531 25.55042969 -26.0625 24.9375 C-25.45470703 24.33873047 -24.84691406 23.73996094 -24.22070312 23.12304688 C-23.02780107 21.9481606 -21.83309932 20.77509842 -20.63647461 19.60400391 C-17.37711333 16.40931442 -14.16506195 13.1679357 -10.95703125 9.921875 C-9.90887692 8.86456077 -8.86069962 7.80726933 -7.8125 6.75 C-7.01295898 5.93789063 -7.01295898 5.93789063 -6.19726562 5.109375 C-2.22573758 1.11286879 -2.22573758 1.11286879 0 0 Z " fill="#394AE6" transform="translate(142,21)"/>
<path d="M0 0 C2.89785608 1.31429885 4.98967405 2.73152132 7.25219727 4.96166992 C8.16818443 5.85851753 8.16818443 5.85851753 9.10267639 6.77348328 C9.75070724 7.41928848 10.3987381 8.06509369 11.06640625 8.73046875 C11.74170883 9.39911453 12.41701141 10.06776031 13.11277771 10.75666809 C14.53835027 12.17212575 15.96122846 13.59030146 17.3815918 15.01098633 C19.54771243 17.17274223 21.72929338 19.31801095 23.91210938 21.46289062 C25.29785521 22.84276631 26.68265242 24.22359546 28.06640625 25.60546875 C28.71646133 26.2411528 29.36651642 26.87683685 30.03627014 27.53178406 C35.98003151 33.53574814 38.33406497 38.90193154 38.51171875 47.46484375 C38.52966995 48.14301651 38.54762115 48.82118927 38.56611633 49.51991272 C38.61974943 51.65904757 38.65396044 53.79796558 38.6875 55.9375 C38.72071492 57.39911843 38.75520837 58.8607084 38.79101562 60.32226562 C38.87544603 63.8813021 38.9424797 67.44041512 39 71 C36.96362305 71.92480469 36.96362305 71.92480469 34 72 C31.18250063 70.09597212 28.9298046 67.64873035 26.58203125 65.203125 C25.8835759 64.49855164 25.18512054 63.79397827 24.46549988 63.0680542 C22.23345429 60.80902474 20.02335291 58.52975451 17.8125 56.25 C16.31187479 54.72785639 14.80993648 53.2070061 13.30664062 51.6875 C10.55843336 48.89713282 7.81213359 46.10512476 5.08520508 43.29394531 C4.53625076 42.72911438 3.98729645 42.16428345 3.42170715 41.58233643 C-1.44286761 36.16814559 -1.12611313 29.96846077 -1.1328125 23.0078125 C-1.13410156 21.72648437 -1.13539062 20.44515625 -1.13671875 19.125 C-1.13462402 18.46886719 -1.1325293 17.81273437 -1.13037109 17.13671875 C-1.12495808 15.10930087 -1.13036782 13.0820991 -1.13671875 11.0546875 C-1.13542969 9.78109375 -1.13414063 8.5075 -1.1328125 7.1953125 C-1.13168457 6.03016113 -1.13055664 4.86500977 -1.12939453 3.66455078 C-1 1 -1 1 0 0 Z " fill="#4555E7" transform="translate(106,120)"/>
<path d="M0 0 C1.27617187 0.02578125 2.55234375 0.0515625 3.8671875 0.078125 C9.15759288 0.31613915 14.42048278 0.70073936 19.6875 1.25 C15.54325104 10.78648199 7.03972892 19.38168274 -0.75390625 26.015625 C-4.69886945 29.4606921 -8.30534178 33.22109425 -11.96484375 36.96484375 C-16.41846897 41.29990324 -19.54268924 41.52471063 -25.48046875 41.4453125 C-26.67268791 41.44106766 -26.67268791 41.44106766 -27.88899231 41.43673706 C-30.42614838 41.42554705 -32.96295072 41.40044491 -35.5 41.375 C-37.22069802 41.36496866 -38.94140159 41.35584308 -40.66210938 41.34765625 C-44.87904243 41.32561161 -49.09571125 41.29109006 -53.3125 41.25 C-47.24360426 34.04119625 -40.73183235 27.3406865 -34.10961914 20.64208984 C-32.70225689 19.21306585 -31.30119664 17.77780812 -29.90649414 16.33642578 C-27.87276293 14.23550133 -25.81975878 12.15521036 -23.76171875 10.078125 C-23.14890549 9.43748108 -22.53609222 8.79683716 -21.90470886 8.13677979 C-15.57162423 1.83295133 -8.9023302 -0.19458645 0 0 Z " fill="#3647E6" transform="translate(166.3125,60.75)"/>
<path d="M0 0 C0.7031987 0.0028299 1.4063974 0.00565979 2.13090515 0.00857544 C4.36218767 0.01971099 6.59305892 0.04480253 8.82421875 0.0703125 C10.34309313 0.0803509 11.86197385 0.08947524 13.38085938 0.09765625 C17.09127796 0.11962837 20.80145817 0.15411203 24.51171875 0.1953125 C25.00671875 1.1853125 25.00671875 1.1853125 25.51171875 2.1953125 C25.03863281 2.58460937 24.56554687 2.97390625 24.078125 3.375 C20.28339999 6.58535215 16.83008475 9.87457656 13.57421875 13.6328125 C7.34048429 20.73052069 0.31535447 27.02700247 -6.61645508 33.43115234 C-8.56211464 35.17875595 -8.56211464 35.17875595 -10.22241211 37.39208984 C-13.48023643 39.98472969 -16.55517836 39.69623836 -20.53515625 39.5859375 C-21.69195892 39.57744781 -21.69195892 39.57744781 -22.87213135 39.56878662 C-25.32815404 39.54644839 -27.7827018 39.49626013 -30.23828125 39.4453125 C-31.90622888 39.42524404 -33.57419946 39.40699387 -35.2421875 39.390625 C-39.32478448 39.34659242 -43.40628306 39.27758533 -47.48828125 39.1953125 C-45.91825594 35.341614 -43.47075665 33.0506342 -40.48828125 30.1953125 C-39.46517917 29.16344038 -38.44583122 28.12783645 -37.4296875 27.08911133 C-34.43455001 24.04066744 -31.43036098 21.00132415 -28.42285156 17.96508789 C-27.13044993 16.65751799 -25.84074215 15.34728013 -24.55371094 14.03442383 C-22.68480286 12.12909917 -20.8063454 10.23365596 -18.92578125 8.33984375 C-18.35480713 7.75338577 -17.78383301 7.1669278 -17.19555664 6.56269836 C-11.74019374 1.1050634 -7.82391538 -0.06234196 0 0 Z " fill="#3748E6" transform="translate(65.48828125,110.8046875)"/>
<path d="M0 0 C1.99528041 -0.01925946 3.98999452 -0.08159222 5.984375 -0.14453125 C7.25796875 -0.15484375 8.5315625 -0.16515625 9.84375 -0.17578125 C11.00406738 -0.19447266 12.16438477 -0.21316406 13.35986328 -0.23242188 C21.25776881 1.35871129 26.95741873 8.23883613 32.4609375 13.77734375 C33.13769531 14.45218811 33.81445312 15.12703247 34.51171875 15.82232666 C35.92579612 17.23505378 37.33739435 18.65026649 38.74658203 20.06787109 C40.91344332 22.24554948 43.09091281 24.41221558 45.26953125 26.578125 C46.64647596 27.95638954 48.02280109 29.3352734 49.3984375 30.71484375 C50.05142822 31.36378601 50.70441895 32.01272827 51.37719727 32.68133545 C51.97201904 33.28246155 52.56684082 33.88358765 53.1796875 34.50292969 C53.70626953 35.03110291 54.23285156 35.55927612 54.77539062 36.10345459 C55.8984375 37.48046875 55.8984375 37.48046875 55.8984375 39.48046875 C51.16623988 39.57974028 46.43465537 39.65212508 41.70166016 39.70019531 C40.09347976 39.72024502 38.48537167 39.74749239 36.87744141 39.78222656 C34.5587373 39.83104139 32.24100125 39.85350303 29.921875 39.87109375 C29.20913422 39.89173889 28.49639343 39.91238403 27.76205444 39.93365479 C21.60196598 39.9363907 18.29583337 37.69735275 13.89135742 33.62451172 C13.30974854 32.99689941 12.72813965 32.36928711 12.12890625 31.72265625 C11.14337769 30.66751831 11.14337769 30.66751831 10.13793945 29.59106445 C9.46077881 28.85331787 8.78361816 28.11557129 8.0859375 27.35546875 C7.38106201 26.59645264 6.67618652 25.83743652 5.94995117 25.05541992 C3.92530936 22.8705027 1.90986046 20.67755348 -0.1015625 18.48046875 C-0.6078418 17.92858887 -1.11412109 17.37670898 -1.63574219 16.80810547 C-5.91509799 12.13216467 -10.09472473 7.39207634 -14.1015625 2.48046875 C-10.49727926 -1.12381449 -4.88305929 0.02850035 0 0 Z " fill="#3748E6" transform="translate(127.1015625,109.51953125)"/>
<path d="M0 0 C0.74636719 0.00193359 1.49273438 0.00386719 2.26171875 0.00585938 C3.02613281 0.01810547 3.79054688 0.03035156 4.578125 0.04296875 C5.35800781 0.04361328 6.13789062 0.04425781 6.94140625 0.04492188 C12.68754793 0.08989168 12.68754793 0.08989168 13.828125 1.23046875 C13.92320321 3.81685913 13.95368876 6.37645435 13.94165039 8.96313477 C13.94179642 9.77282715 13.94194244 10.58251953 13.9420929 11.41674805 C13.94139354 14.10598383 13.9336001 16.79515124 13.92578125 19.484375 C13.92391715 21.34382591 13.92249321 23.20327731 13.92149353 25.06272888 C13.91766771 29.96675971 13.90783688 34.87076111 13.89678955 39.77478027 C13.88657681 44.77497967 13.88199621 49.77518381 13.87695312 54.77539062 C13.86621467 64.59376296 13.84913748 74.41211341 13.828125 84.23046875 C10.37067478 84.45574171 6.91225475 84.65780419 3.453125 84.85546875 C1.97585938 84.95214844 1.97585938 84.95214844 0.46875 85.05078125 C-0.47226562 85.10234375 -1.41328125 85.15390625 -2.3828125 85.20703125 C-3.25212402 85.25939941 -4.12143555 85.31176758 -5.01708984 85.36572266 C-7.171875 85.23046875 -7.171875 85.23046875 -9.171875 83.23046875 C-9.35975705 80.64038566 -9.42375266 78.15815942 -9.39892578 75.56787109 C-9.39921783 74.77753983 -9.39950989 73.98720856 -9.39981079 73.17292786 C-9.39841462 70.55397661 -9.38284005 67.93530795 -9.3671875 65.31640625 C-9.36345839 63.50322627 -9.36061094 61.69004428 -9.35861206 59.87686157 C-9.35096757 55.09939024 -9.33131212 50.32204008 -9.3092041 45.5446167 C-9.2887632 40.67168823 -9.27961411 35.79874022 -9.26953125 30.92578125 C-9.24806697 21.36062378 -9.21392123 11.79555633 -9.171875 2.23046875 C-5.96475552 0.89666267 -3.48696756 -0.02108053 0 0 Z M-5.171875 3.23046875 C-5.171875 29.30046875 -5.171875 55.37046875 -5.171875 82.23046875 C0.438125 82.23046875 6.048125 82.23046875 11.828125 82.23046875 C11.828125 56.16046875 11.828125 30.09046875 11.828125 3.23046875 C6.218125 3.23046875 0.608125 3.23046875 -5.171875 3.23046875 Z " fill="#8790EF" transform="translate(727.171875,79.76953125)"/>
<path d="M0 0 C6.43868766 4.4625643 10.72571863 11.70313947 12.55099487 19.29034424 C13.02840918 22.17144367 13.1270679 24.86423145 13.12939453 27.78417969 C13.13254669 28.9217572 13.13569885 30.05933472 13.13894653 31.23138428 C13.1369223 32.44924622 13.13489807 33.66710815 13.1328125 34.921875 C13.13376923 36.17760315 13.13472595 37.4333313 13.13571167 38.72711182 C13.13639142 41.37654083 13.13505481 44.02587722 13.13037109 46.67529297 C13.12465082 50.07732177 13.12797158 53.47927208 13.13394356 56.88129807 C13.13841353 60.12399326 13.13529063 63.36667879 13.1328125 66.609375 C13.13483673 67.83533386 13.13686096 69.06129272 13.13894653 70.32440186 C13.13421829 72.01185516 13.13421829 72.01185516 13.12939453 73.73339844 C13.12859894 74.72869568 13.12780334 75.72399292 13.12698364 76.74945068 C13 79 13 79 12 80 C9.52642763 80.15349136 7.09995481 80.23159885 4.625 80.25 C3.93921875 80.270625 3.2534375 80.29125 2.546875 80.3125 C-2.49533106 80.35173896 -2.49533106 80.35173896 -4.93359375 78.65234375 C-6.32241261 76.5004376 -6.65975885 74.51778452 -7 72 C-7.99 72.99 -8.98 73.98 -10 75 C-10.66 74.67 -11.32 74.34 -12 74 C-9.69 72.02 -7.38 70.04 -5 68 C-4.505 72.95 -4.505 72.95 -4 78 C1.28 78 6.56 78 12 78 C11.84144531 75.81246094 11.68289063 73.62492187 11.51953125 71.37109375 C11.07586588 64.69611802 10.89606051 58.03622096 10.82421875 51.34765625 C10.81230499 50.42866547 10.80039124 49.50967468 10.78811646 48.56283569 C10.73933295 44.76574987 10.69171062 40.96900736 10.67407227 37.17163086 C10.65853343 34.35479895 10.61836232 31.53916675 10.57421875 28.72265625 C10.57612717 27.87872818 10.57803558 27.03480011 10.58000183 26.16529846 C10.42419152 18.52574046 7.92217968 11.21419381 2.75390625 5.4140625 C-3.32730445 0.51117102 -11.24616795 -3.12003783 -19.1171875 -3.1328125 C-19.88933594 -3.13410156 -20.66148437 -3.13539062 -21.45703125 -3.13671875 C-22.65392578 -3.13091797 -22.65392578 -3.13091797 -23.875 -3.125 C-24.66519531 -3.12886719 -25.45539063 -3.13273437 -26.26953125 -3.13671875 C-30.6251962 -3.12947139 -34.71160502 -2.86871024 -39 -2 C-28.11133092 -10.94426388 -11.16048536 -6.10106533 0 0 Z " fill="#DBDEF8" transform="translate(456,85)"/>
<path d="M0 0 C0.66 0 1.32 0 2 0 C2 26.73 2 53.46 2 81 C8.27 81 14.54 81 21 81 C20.96519531 76.79056641 20.96519531 76.79056641 20.9296875 72.49609375 C20.91406645 69.76229301 20.90193568 67.02849733 20.89013672 64.29467773 C20.88011185 62.40240229 20.86648845 60.51014222 20.84912109 58.61791992 C20.82471778 55.8897725 20.81348155 53.16183085 20.8046875 50.43359375 C20.79436493 49.59477158 20.78404236 48.7559494 20.77340698 47.89170837 C20.77245913 42.8701288 21.38408979 38.76106417 23 34 C23.9595197 36.6653325 23.96204851 38.25902302 23.54492188 41.10595703 C22.95131263 45.34792273 22.7941229 49.46667652 22.71875 53.7421875 C22.68100042 55.40104191 22.64323969 57.05989607 22.60546875 58.71875 C22.55159079 61.31280089 22.49936573 63.90687964 22.44775391 66.50097656 C22.39622126 69.01898444 22.33895723 71.53681479 22.28125 74.0546875 C22.26767456 74.83689667 22.25409912 75.61910583 22.2401123 76.42501831 C22.11295482 81.88704518 22.11295482 81.88704518 21 83 C14.07 83 7.14 83 0 83 C0 55.61 0 28.22 0 0 Z " fill="#CBD0F6" transform="translate(660,82)"/>
<path d="M0 0 C1.2694043 -0.00193359 1.2694043 -0.00193359 2.56445312 -0.00390625 C3.44939453 -0.00003906 4.33433594 0.00382812 5.24609375 0.0078125 C6.13490234 0.00394531 7.02371094 0.00007813 7.93945312 -0.00390625 C8.78443359 -0.00261719 9.62941406 -0.00132813 10.5 0 C11.66704468 0.00169189 11.66704468 0.00169189 12.85766602 0.00341797 C14.68359375 0.1328125 14.68359375 0.1328125 15.68359375 1.1328125 C15.75585877 2.98568752 15.76740595 4.84115128 15.74609375 6.6953125 C15.73707031 7.70722656 15.72804688 8.71914063 15.71875 9.76171875 C15.70714844 10.54417969 15.69554687 11.32664062 15.68359375 12.1328125 C15.35359375 12.1328125 15.02359375 12.1328125 14.68359375 12.1328125 C14.68359375 8.8328125 14.68359375 5.5328125 14.68359375 2.1328125 C8.08359375 2.1328125 1.48359375 2.1328125 -5.31640625 2.1328125 C-5.31640625 39.7528125 -5.31640625 77.3728125 -5.31640625 116.1328125 C0.62359375 116.1328125 6.56359375 116.1328125 12.68359375 116.1328125 C12.68359375 112.5028125 12.68359375 108.8728125 12.68359375 105.1328125 C13.34359375 105.1328125 14.00359375 105.1328125 14.68359375 105.1328125 C15.34359375 106.4528125 16.00359375 107.7728125 16.68359375 109.1328125 C16.02359375 109.1328125 15.36359375 109.1328125 14.68359375 109.1328125 C14.72484375 110.2465625 14.76609375 111.3603125 14.80859375 112.5078125 C14.68359375 116.1328125 14.68359375 116.1328125 12.68359375 118.1328125 C10.82006836 118.37573242 10.82006836 118.37573242 8.5859375 118.36328125 C7.78478516 118.36134766 6.98363281 118.35941406 6.15820312 118.35742188 C5.32095703 118.34517578 4.48371094 118.33292969 3.62109375 118.3203125 C2.77998047 118.31966797 1.93886719 118.31902344 1.07226562 118.31835938 C-5.17617441 118.27304434 -5.17617441 118.27304434 -6.31640625 117.1328125 C-6.41215934 115.62730076 -6.43828812 114.1173022 -6.43666077 112.60874939 C-6.43803543 111.63133286 -6.4394101 110.65391632 -6.44082642 109.6468811 C-6.43723114 108.56579071 -6.43363586 107.48470032 -6.42993164 106.37084961 C-6.43007767 105.2392894 -6.43022369 104.10772919 -6.43037415 102.94187927 C-6.42967444 99.18128579 -6.42187936 95.42074113 -6.4140625 91.66015625 C-6.41219852 89.06083707 -6.41077453 86.46151753 -6.40977478 83.86219788 C-6.40633966 77.70692673 -6.39844881 71.5516759 -6.38842529 65.39641243 C-6.37726319 58.39047904 -6.37175346 51.38454483 -6.36672986 44.37860477 C-6.35626617 29.96333117 -6.33866733 15.54807246 -6.31640625 1.1328125 C-3.98476789 -0.03300668 -2.59487143 0.00375641 0 0 Z " fill="#FDFDFD" transform="translate(760.31640625,46.8671875)"/>
<path d="M0 0 C10.81431101 5.56684441 17.9977971 13.17371799 22.15307617 24.89233398 C23.76987288 31.87920546 23.68871687 39.25305622 23.26245117 46.38061523 C22.26245117 47.38061523 22.26245117 47.38061523 19.10229492 47.47827148 C17.81452148 47.46666992 16.52674805 47.45506836 15.19995117 47.44311523 C13.90959961 47.4340918 12.61924805 47.42506836 11.28979492 47.41577148 C10.29077148 47.40416992 9.29174805 47.39256836 8.26245117 47.38061523 C8.26245117 47.05061523 8.26245117 46.72061523 8.26245117 46.38061523 C12.55245117 46.38061523 16.84245117 46.38061523 21.26245117 46.38061523 C21.079739 32.51110001 19.79795567 19.8187656 9.64916992 9.32202148 C3.01519703 3.92581113 -4.90481344 0.22784129 -13.50317383 0.28295898 C-14.39262695 0.28618164 -15.28208008 0.2894043 -16.19848633 0.29272461 C-17.11887695 0.30110352 -18.03926758 0.30948242 -18.98754883 0.31811523 C-20.39133789 0.32488281 -20.39133789 0.32488281 -21.82348633 0.33178711 C-24.12823924 0.34354605 -26.43286109 0.35998098 -28.73754883 0.38061523 C-24.98181644 -7.13084955 -6.05467467 -2.82169529 0 0 Z " fill="#EDEEFA" transform="translate(902.737548828125,81.619384765625)"/>
<path d="M0 0 C3.49956802 3.77263493 5.87122142 6.9124598 7.02734375 12.05078125 C6.36734375 12.38078125 5.70734375 12.71078125 5.02734375 13.05078125 C4.62515625 12.08978516 4.62515625 12.08978516 4.21484375 11.109375 C-0.22251027 1.31508374 -6.24300831 -3.80479475 -16.11328125 -7.94921875 C-28.85684897 -12.4059856 -42.82129271 -12.43647596 -55.16015625 -6.76171875 C-62.09997525 -3.05175262 -66.93215353 1.71780411 -69.97265625 9.05078125 C-70.97265625 6.05078125 -70.97265625 6.05078125 -70.2578125 4.21875 C-64.17788852 -5.62956137 -55.82513207 -9.52862827 -44.97265625 -12.94921875 C-28.42800131 -16.68510857 -11.95657527 -11.81451695 0 0 Z " fill="#F3F4FB" transform="translate(295.97265625,59.94921875)"/>
<path d="M0 0 C1.81177734 0.61294922 1.81177734 0.61294922 3.66015625 1.23828125 C7.56778714 2.5443914 11.49448041 3.77284468 15.43359375 4.98046875 C17.76835278 5.71575343 20.10298579 6.45143837 22.4375 7.1875 C24.18256836 7.71053711 24.18256836 7.71053711 25.96289062 8.24414062 C36.92008989 11.75266419 46.18531553 17.78675348 52 28 C53.31505245 32.39472315 53.2219423 36.69763818 53.25 41.25 C53.270625 42.07113281 53.29125 42.89226562 53.3125 43.73828125 C53.34904342 49.50300523 52.48619042 53.7720295 50 59 C49.01 59.66 48.02 60.32 47 61 C49 55 49 55 50.04296875 52.2734375 C52.32318734 44.47415921 52.38074108 34.82780471 48.9375 27.375 C41.95170828 15.72550934 29.00508912 11.74383929 16.6875 7.875 C14.58542327 7.21145597 12.4850856 6.54237179 10.38671875 5.8671875 C9.47108154 5.57956543 8.55544434 5.29194336 7.61206055 4.99560547 C4.83485575 3.93705409 2.46899515 2.65008343 0 1 C0 0.67 0 0.34 0 0 Z " fill="#EEEFFB" transform="translate(512,90)"/>
<path d="M0 0 C0 0.66 0 1.32 0 2 C-1.65 2.33 -3.3 2.66 -5 3 C-5 2.34 -5 1.68 -5 1 C-9.12486211 0.91186192 -13.24947739 0.85922922 -17.375 0.8125 C-18.53128906 0.78736328 -19.68757813 0.76222656 -20.87890625 0.73632812 C-30.89427492 0.65145212 -40.49446639 1.77318647 -48 9 C-52.55980942 14.49515494 -52.6099677 19.59235352 -52.37890625 26.62109375 C-51.63008948 33.29868663 -49.24936438 37.11921823 -44.25 41.5 C-43.17747787 42.34720236 -42.0978393 43.18587198 -41 44 C-42.485 44.495 -42.485 44.495 -44 45 C-45.11377531 43.96861354 -46.21554645 42.92425992 -47.3125 41.875 C-47.92738281 41.29492188 -48.54226563 40.71484375 -49.17578125 40.1171875 C-53.71685464 34.84681967 -54.48068013 30.1813324 -54.375 23.5 C-54.38660156 22.76652344 -54.39820313 22.03304687 -54.41015625 21.27734375 C-54.37925904 15.52016276 -53.09263533 11.48893116 -49.30859375 6.98828125 C-35.89879765 -5.0217449 -16.56971265 -2.50670012 0 0 Z " fill="#E8EBFA" transform="translate(449,116)"/>
<path d="M0 0 C2.42570762 2.1357274 4.23197721 4.3070685 6 7 C6.721875 7.928125 7.44375 8.85625 8.1875 9.8125 C12.90371396 18.10653145 13.40967501 26.24807539 13.1875 35.625 C13.16719727 37.27435547 13.16719727 37.27435547 13.14648438 38.95703125 C13.111508 41.63855332 13.06243072 44.31900073 13 47 C12.67 47 12.34 47 12 47 C11.99589111 46.37134033 11.99178223 45.74268066 11.98754883 45.0949707 C11.79952188 28.64938185 11.42561917 15.43530235 -0.65625 3.03125 C-6.34764501 -1.90129234 -12.50431097 -4.1432664 -19.984375 -4.09765625 C-20.91894531 -4.09443359 -21.85351562 -4.09121094 -22.81640625 -4.08789062 C-24.26853516 -4.07532227 -24.26853516 -4.07532227 -25.75 -4.0625 C-27.22533203 -4.05573242 -27.22533203 -4.05573242 -28.73046875 -4.04882812 C-31.15370791 -4.03706483 -33.57682273 -4.02062684 -36 -4 C-35 -6 -35 -6 -33.4296875 -6.59375 C-20.7864419 -8.70773319 -10.62727275 -7.32323506 0 0 Z " fill="#E3E4F8" transform="translate(826,86)"/>
<path d="M0 0 C5.28352625 1.05670525 6.12495622 1.65845867 9.625 5.375 C10.38039063 6.16648437 11.13578125 6.95796875 11.9140625 7.7734375 C12.60242188 8.50820313 13.29078125 9.24296875 14 10 C14.58523437 10.54914062 15.17046875 11.09828125 15.7734375 11.6640625 C17 13 17 13 17 15 C17.5775 15.2475 18.155 15.495 18.75 15.75 C21.32939979 17.18299988 23.06121592 18.78424676 25 21 C25 21.66 25 22.32 25 23 C25.61875 23.2475 26.2375 23.495 26.875 23.75 C29.35068687 25.20628639 29.95125002 26.37812506 31 29 C31.66 29 32.32 29 33 29 C34.54296875 30.42578125 34.54296875 30.42578125 36.1875 32.3125 C37.01314453 33.23482422 37.01314453 33.23482422 37.85546875 34.17578125 C38.23316406 34.77777344 38.61085937 35.37976562 39 36 C38.67 36.99 38.34 37.98 38 39 C37.57074219 38.49855469 37.14148438 37.99710938 36.69921875 37.48046875 C28.89825826 28.58888854 20.43920401 20.34283277 12.03710938 12.02490234 C10.38127869 10.37899394 8.74268829 8.71888485 7.109375 7.05078125 C4.97711702 4.85309291 4.97711702 4.85309291 2 3 C2 9.27 2 15.54 2 22 C1.67 22 1.34 22 1 22 C0.67 14.74 0.34 7.48 0 0 Z " fill="#ECEEFB" transform="translate(57,19)"/>
<path d="M0 0 C0.33 0 0.66 0 1 0 C1 20.79 1 41.58 1 63 C-4.28 63 -9.56 63 -15 63 C-17.35953094 60.64046906 -17.49141413 59.22104383 -18 56 C-19.65 56.66 -21.3 57.32 -23 58 C-21.02 55.69 -19.04 53.38 -17 51 C-15 53 -15 53 -14.8046875 54.9453125 C-14.86979167 56.96354167 -14.93489583 58.98177083 -15 61 C-10.05 61 -5.1 61 0 61 C0 40.87 0 20.74 0 0 Z " fill="#8891EE" transform="translate(383,102)"/>
<path d="M0 0 C1.19140625 2.10546875 1.19140625 2.10546875 2 4 C3.32842776 4.67638888 4.66217932 5.34238458 6 6 C7.73828125 8.0234375 7.73828125 8.0234375 9.3125 10.375 C9.84488281 11.14585938 10.37726562 11.91671875 10.92578125 12.7109375 C12 15 12 15 11.66796875 17.2890625 C11.33732422 18.13597656 11.33732422 18.13597656 11 19 C10.50693359 18.05640625 10.50693359 18.05640625 10.00390625 17.09375 C4.04528145 6.37145497 -3.49023116 0.06425885 -15.109375 -3.6796875 C-24.49945812 -6.18142497 -34.47785506 -5.2911383 -44 -4 C-43 -6 -43 -6 -41.3125 -6.66796875 C-26.77988233 -9.93289806 -12.69364587 -7.73143879 0 0 Z " fill="#F4F5FC" transform="translate(550,54)"/>
<path d="M0 0 C4.46572364 -0.04958948 8.93129961 -0.085809 13.3972168 -0.10986328 C14.91514886 -0.11989545 16.43306173 -0.13352438 17.95092773 -0.15087891 C20.1379064 -0.17525035 22.32462864 -0.18651095 24.51171875 -0.1953125 C25.82615967 -0.20578613 27.14060059 -0.21625977 28.49487305 -0.22705078 C34.0692202 0.13403739 37.25030216 1.90705621 41.3125 5.625 C42.00988281 6.25664063 42.70726562 6.88828125 43.42578125 7.5390625 C44.20501953 8.26222656 44.20501953 8.26222656 45 9 C44.34 9.66 43.68 10.32 43 11 C42.51789062 10.50628906 42.03578125 10.01257813 41.5390625 9.50390625 C40.90742187 8.86324219 40.27578125 8.22257812 39.625 7.5625 C38.99851563 6.92441406 38.37203125 6.28632812 37.7265625 5.62890625 C34.30215575 2.39818766 30.83758187 2.78546568 26.3671875 2.68359375 C25.61535187 2.66281265 24.86351624 2.64203156 24.08889771 2.62062073 C21.68435915 2.55517295 19.27971033 2.49626262 16.875 2.4375 C15.24608229 2.39431023 13.61717578 2.35069579 11.98828125 2.30664062 C7.99230085 2.19949649 3.99620941 2.09821567 0 2 C0.48210938 2.54269531 0.96421875 3.08539063 1.4609375 3.64453125 C2.40839844 4.71767578 2.40839844 4.71767578 3.375 5.8125 C4.00148438 6.52019531 4.62796875 7.22789063 5.2734375 7.95703125 C7 10 7 10 9 13 C5.78475695 11.59155282 3.67816132 9.89655214 1.25 7.375 C0.63640625 6.74335937 0.0228125 6.11171875 -0.609375 5.4609375 C-1.29773438 4.73777344 -1.29773438 4.73777344 -2 4 C-1.34 2.68 -0.68 1.36 0 0 Z " fill="#E3E5F9" transform="translate(16,60)"/>
<path d="M0 0 C7.70709137 4.87661091 14.45562086 10.93237568 17.6484375 19.67578125 C17.9609375 23.23828125 17.9609375 23.23828125 17.6484375 25.67578125 C16.65695155 23.71028047 15.67981221 21.74346295 14.75390625 19.74609375 C10.30359023 10.3152113 4.29331111 4.72762844 -5.39453125 1.04296875 C-10.90325868 -0.7364691 -16.17569963 -0.65983004 -21.9140625 -0.51171875 C-23.42709961 -0.49141602 -23.42709961 -0.49141602 -24.97070312 -0.47070312 C-27.43156871 -0.43571451 -29.89126585 -0.38663033 -32.3515625 -0.32421875 C-28.36608657 -8.29517062 -6.01146543 -2.98889388 0 0 Z " fill="#F3F4FB" transform="translate(634.3515625,82.32421875)"/>
<path d="M0 0 C2.95265112 1.32994383 5.02350216 2.77779316 7.29980469 5.07275391 C7.92014587 5.69324615 8.54048706 6.3137384 9.17962646 6.95303345 C10.16578949 7.95468033 10.16578949 7.95468033 11.171875 8.9765625 C11.8542926 9.66181 12.53671021 10.3470575 13.23980713 11.05307007 C15.41461598 13.23905845 17.58236072 15.43190429 19.75 17.625 C21.2247999 19.10983255 22.70005506 20.59421306 24.17578125 22.078125 C27.78915448 25.7135291 31.39620853 29.35509824 35 33 C34.505 33.99 34.505 33.99 34 35 C23.44 24.44 12.88 13.88 2 3 C1.34 11.25 0.68 19.5 0 28 C-0.33 28 -0.66 28 -1 28 C-1.02886338 23.52084672 -1.04675187 19.04171709 -1.0625 14.5625 C-1.07087891 13.28310547 -1.07925781 12.00371094 -1.08789062 10.68554688 C-1.09111328 9.47060547 -1.09433594 8.25566406 -1.09765625 7.00390625 C-1.10289307 5.87799072 -1.10812988 4.7520752 -1.11352539 3.59204102 C-1 1 -1 1 0 0 Z " fill="#1424E2" transform="translate(106,120)"/>
<path d="M0 0 C0.33 0 0.66 0 1 0 C1 1.65 1 3.3 1 5 C1.82757812 4.9278125 2.65515625 4.855625 3.5078125 4.78125 C15.0096327 3.88694001 26.46854009 3.8972804 38 4 C38.33 3.34 38.66 2.68 39 2 C39 3.32 39 4.64 39 6 C38.34 6 37.68 6 37 6 C37 6.66 37 7.32 37 8 C29.08 8 21.16 8 13 8 C13 7.67 13 7.34 13 7 C6.07 6.505 6.07 6.505 -1 6 C-0.67 4.02 -0.34 2.04 0 0 Z " fill="#929BEF" transform="translate(867,110)"/>
<path d="M0 0 C2.13586678 3.20380017 2.23132175 4.01939967 2.125 7.6875 C2.10695313 8.49574219 2.08890625 9.30398437 2.0703125 10.13671875 C2.04710937 10.75160156 2.02390625 11.36648437 2 12 C1.08734375 11.84144531 0.1746875 11.68289062 -0.765625 11.51953125 C-6.07763555 10.76810865 -11.39321163 10.73747004 -16.75 10.6875 C-18.28140625 10.64399414 -18.28140625 10.64399414 -19.84375 10.59960938 C-28.36734065 10.52930057 -36.57456579 12.08985594 -43.5 17.375 C-46.08963915 20.09412111 -47.55568542 22.54969295 -49 26 C-50 23 -50 23 -49.125 20.1875 C-45.56377521 14.84566281 -40.2666076 11.3898466 -34.0625 9.6875 C-22.0801062 7.3338155 -10.94568097 7.73618229 1 10 C0.67 6.7 0.34 3.4 0 0 Z " fill="#EBEDFA" transform="translate(363,106)"/>
<path d="M0 0 C5.06562057 3.68561762 8.38523691 8.35211173 11 14 C11.25 16.9375 11.25 16.9375 11 19 C9.43920907 16.65881361 8.41672301 14.7207175 7.3125 12.1875 C3.47735072 4.50310163 -3.13233872 0.83584833 -11 -2 C-13.7718774 -2.7973795 -16.23564296 -3.12813575 -19.1171875 -3.1328125 C-19.88933594 -3.13410156 -20.66148437 -3.13539062 -21.45703125 -3.13671875 C-22.65392578 -3.13091797 -22.65392578 -3.13091797 -23.875 -3.125 C-24.66519531 -3.12886719 -25.45539063 -3.13273437 -26.26953125 -3.13671875 C-30.6251962 -3.12947139 -34.71160502 -2.86871024 -39 -2 C-28.12909814 -10.92966939 -11.14075382 -6.12336832 0 0 Z " fill="#F0F1FB" transform="translate(456,85)"/>
<path d="M0 0 C6.25002808 3.65522207 11.67000462 7.67017012 14.0390625 14.77734375 C13.59765625 16.953125 13.59765625 16.953125 13.0390625 18.77734375 C12.75933594 18.19726562 12.47960937 17.6171875 12.19140625 17.01953125 C7.50435887 7.88657075 1.66415406 3.24664662 -7.9609375 -0.22265625 C-10.95605245 -1.10687892 -13.60739895 -1.34030714 -16.7265625 -1.3203125 C-17.61601562 -1.31708984 -18.50546875 -1.31386719 -19.421875 -1.31054688 C-20.34226562 -1.30216797 -21.26265625 -1.29378906 -22.2109375 -1.28515625 C-23.61472656 -1.27838867 -23.61472656 -1.27838867 -25.046875 -1.27148438 C-27.35162791 -1.25972543 -29.65624977 -1.24329051 -31.9609375 -1.22265625 C-27.61042784 -9.92367556 -6.3290803 -3.0917921 0 0 Z " fill="#F0F0FB" transform="translate(368.9609375,83.22265625)"/>
<path d="M0 0 C2.125 0.9375 2.125 0.9375 4 2 C3.67 3.98 3.34 5.96 3 8 C2.67 8 2.34 8 2 8 C2 6.02 2 4.04 2 2 C-5.26575846 7.51713192 -11.88036469 13.53637311 -18.30639648 19.99072266 C-19.81958843 21.50710337 -21.34574851 23.0095621 -22.87304688 24.51171875 C-28.04073844 29.64751683 -32.48150017 34.58885064 -36 41 C-36.495 39.515 -36.495 39.515 -37 38 C-34.18211312 32.85461174 -30.24117728 29.00169297 -26.0625 24.9375 C-25.45470703 24.33873047 -24.84691406 23.73996094 -24.22070312 23.12304688 C-23.02780107 21.9481606 -21.83309932 20.77509842 -20.63647461 19.60400391 C-17.37711333 16.40931442 -14.16506195 13.1679357 -10.95703125 9.921875 C-9.90887692 8.86456077 -8.86069962 7.80726933 -7.8125 6.75 C-7.01295898 5.93789063 -7.01295898 5.93789063 -6.19726562 5.109375 C-2.22573758 1.11286879 -2.22573758 1.11286879 0 0 Z " fill="#F8F8FB" transform="translate(142,21)"/>
<path d="M0 0 C1.96259452 0.96400568 3.89602351 1.93983893 5.7890625 3.03515625 C11.11779813 6.01698066 15.93865265 6.75158413 22 7 C22 7.99 22 8.98 22 10 C22.70382813 10.12503906 23.40765625 10.25007813 24.1328125 10.37890625 C27.14514368 11.03144121 29.96126818 11.93472217 32.875 12.9375 C37.22560085 14.41455584 41.56806699 15.791291 46 17 C46.66 19.64 47.32 22.28 48 25 C47.34 24.2575 46.68 23.515 46 22.75 C40.59364149 17.40387947 33.51102683 15.42118424 26.4296875 13.1328125 C22.46757162 11.82414097 18.54244278 10.43609481 14.625 9 C13.95919922 8.76297363 13.29339844 8.52594727 12.60742188 8.28173828 C2.21837304 4.43674609 2.21837304 4.43674609 0 0 Z " fill="#BCC2F5" transform="translate(233,103)"/>
<path d="M0 0 C0.66 0.33 1.32 0.66 2 1 C0.04761147 3.00612399 -1.91137822 5.00492433 -3.875 7 C-4.43058594 7.57234375 -4.98617188 8.1446875 -5.55859375 8.734375 C-7.00134404 10.19450782 -8.4974374 11.60149298 -10 13 C-10.66 13 -11.32 13 -12 13 C-12.4021875 13.86625 -12.4021875 13.86625 -12.8125 14.75 C-14 17 -14 17 -17 21 C-7.1 21 2.8 21 13 21 C13 21.33 13 21.66 13 22 C2.44 22 -8.12 22 -19 22 C-17.89739472 16.48697359 -17.89739472 16.48697359 -14.66015625 13.5234375 C-12.50787515 11.54840308 -10.4843227 9.45891504 -8.4375 7.375 C-5.76017533 4.65591464 -3.11034613 2.21462287 0 0 Z " fill="#EAEBF9" transform="translate(35,129)"/>
<path d="M0 0 C-0.65226562 0.3403125 -1.30453125 0.680625 -1.9765625 1.03125 C-9.1375014 5.00250815 -13.98097938 9.09468185 -17.13671875 16.76171875 C-18.12978736 20.48684942 -18.34165911 23.98536735 -18.3125 27.8125 C-18.31121094 28.51375 -18.30992187 29.215 -18.30859375 29.9375 C-18.2051711 35.53266523 -17.19028639 39.88933176 -15 45 C-15.66 45 -16.32 45 -17 45 C-21.46732132 34.68926284 -22.57590979 25.96898565 -18.90625 15.21484375 C-16.11108842 8.38356523 -11.20335698 3.55434771 -4.96875 -0.234375 C-3 -1 -3 -1 0 0 Z " fill="#EBEDF9" transform="translate(503,52)"/>
<path d="M0 0 C2.17864814 1.6990715 3.27328213 3.32655589 4.67578125 5.703125 C8.60352621 11.87246178 13.4501593 15.95505848 19.86328125 19.453125 C18.87328125 19.783125 17.88328125 20.113125 16.86328125 20.453125 C10.5033463 17.20969919 5.01667578 11.14980079 0.86328125 5.453125 C0.140625 3.1796875 0.140625 3.1796875 -0.13671875 1.453125 C-9.62271026 6.76238424 -9.62271026 6.76238424 -18.13671875 13.453125 C-17.93359375 11.1484375 -17.93359375 11.1484375 -17.13671875 8.453125 C-15.02734375 6.7578125 -15.02734375 6.7578125 -12.38671875 5.328125 C-11.525625 4.85117188 -10.66453125 4.37421875 -9.77734375 3.8828125 C-8.47023437 3.17511719 -8.47023437 3.17511719 -7.13671875 2.453125 C-6.2859375 1.85757813 -5.43515625 1.26203125 -4.55859375 0.6484375 C-2.13671875 -0.546875 -2.13671875 -0.546875 0 0 Z " fill="#F0F1FB" transform="translate(234.13671875,125.546875)"/>
<path d="M0 0 C0.66 0.33 1.32 0.66 2 1 C0.5735422 4.2586636 -1.16704162 6.4024854 -3.6953125 8.890625 C-4.76845703 9.95410156 -4.76845703 9.95410156 -5.86328125 11.0390625 C-6.60964844 11.76867188 -7.35601562 12.49828125 -8.125 13.25 C-8.87910156 13.99507812 -9.63320312 14.74015625 -10.41015625 15.5078125 C-12.26900772 17.3431342 -14.13237005 19.1736191 -16 21 C-16.72631836 19.25683594 -16.72631836 19.25683594 -17 17 C-15.55297852 14.98535156 -15.55297852 14.98535156 -13.37890625 12.890625 C-12.60869141 12.13652344 -11.83847656 11.38242187 -11.04492188 10.60546875 C-10.22572266 9.82816406 -9.40652344 9.05085938 -8.5625 8.25 C-7.74716797 7.45722656 -6.93183594 6.66445313 -6.09179688 5.84765625 C-4.07189608 3.88681688 -2.04127872 1.9385351 0 0 Z " fill="#3343E5" transform="translate(127,37)"/>
<path d="M0 0 C1.02770508 -0.01160156 1.02770508 -0.01160156 2.07617188 -0.0234375 C7.1841133 -0.0033867 7.1841133 -0.0033867 9.4375 2.25 C9.8515625 4.74609375 9.8515625 4.74609375 10.0625 7.6875 C10.13726563 8.65558594 10.21203125 9.62367187 10.2890625 10.62109375 C10.59503109 16.03995854 10.59503109 16.03995854 7.4375 20.25 C7.4375 14.31 7.4375 8.37 7.4375 2.25 C1.4975 2.25 -4.4425 2.25 -10.5625 2.25 C-6.92564463 -0.17457025 -4.20017221 -0.04768407 0 0 Z " fill="#F3F3FB" transform="translate(672.5625,79.75)"/>
<path d="M0 0 C3.61235005 1.20411668 4.45419335 2.74581942 6.203125 6.03515625 C7.93623881 10.30847118 7.36982117 13.84430884 6 18.125 C3.17434604 22.18687756 0.76856999 24.46582219 -4 26 C-9.65164049 26.58469924 -15.33776142 26.28954629 -21 26 C-21 25.67 -21 25.34 -21 25 C-19.9378125 24.98582031 -18.875625 24.97164062 -17.78125 24.95703125 C-9.53985552 24.72428952 -3.57246293 24.49940776 3 19 C4.85437404 15.29125192 4.46438653 11.04679692 4 7 C2.92473903 4.33767261 1.65396201 2.37757038 0 0 Z " fill="#E6E8FA" transform="translate(536,121)"/>
<path d="M0 0 C0 0.99 0 1.98 0 3 C-0.60328125 2.65066406 -1.2065625 2.30132812 -1.828125 1.94140625 C-2.62734375 1.48636719 -3.4265625 1.03132813 -4.25 0.5625 C-5.03890625 0.11003906 -5.8278125 -0.34242187 -6.640625 -0.80859375 C-10.46191149 -2.7382169 -13.72701514 -3.12361576 -17.984375 -3.09765625 C-18.91894531 -3.09443359 -19.85351562 -3.09121094 -20.81640625 -3.08789062 C-22.26853516 -3.07532227 -22.26853516 -3.07532227 -23.75 -3.0625 C-25.22533203 -3.05573242 -25.22533203 -3.05573242 -26.73046875 -3.04882812 C-29.15370791 -3.03706483 -31.57682273 -3.02062684 -34 -3 C-33 -5 -33 -5 -31.4375 -5.59765625 C-19.59134492 -7.55303121 -10.15989448 -6.57750394 0 0 Z " fill="#F6F6FC" transform="translate(824,85)"/>
<path d="M0 0 C0.66 0 1.32 0 2 0 C2.66 1.32 3.32 2.64 4 4 C3.34 4 2.68 4 2 4 C2.04125 5.11375 2.0825 6.2275 2.125 7.375 C2 11 2 11 0 13 C-1.87939453 13.22705078 -1.87939453 13.22705078 -4.1328125 13.1953125 C-5.34130859 13.18564453 -5.34130859 13.18564453 -6.57421875 13.17578125 C-7.41597656 13.15902344 -8.25773438 13.14226562 -9.125 13.125 C-10.39923828 13.11146484 -10.39923828 13.11146484 -11.69921875 13.09765625 C-13.79959884 13.07405647 -15.89983444 13.03818483 -18 13 C-18 12.34 -18 11.68 -18 11 C-12.06 11 -6.12 11 0 11 C0 7.37 0 3.74 0 0 Z " fill="#C9CEF5" transform="translate(773,152)"/>
<path d="M0 0 C0.66 0.33 1.32 0.66 2 1 C-0.23515028 4.07333164 -2.61866233 6.61336298 -5.5 9.0625 C-9.86785936 12.78052717 -13.87044282 16.81206239 -17.875 20.91235352 C-20.16047799 23.23644768 -22.27592517 25.18395012 -25 27 C-25.99 26.67 -26.98 26.34 -28 26 C-27.31647461 25.53086182 -27.31647461 25.53086182 -26.61914062 25.05224609 C-20.28356524 20.52120648 -14.94479549 15.1726768 -9.5 9.625 C-8.5821875 8.69816406 -7.664375 7.77132812 -6.71875 6.81640625 C-4.47451015 4.5487889 -2.23510578 2.27661489 0 0 Z " fill="#F1F2FD" transform="translate(174,75)"/>
<path d="M0 0 C0.99 0.4021875 0.99 0.4021875 2 0.8125 C2.99 1.204375 3.98 1.59625 5 2 C6.134375 2.53625 7.26875 3.0725 8.4375 3.625 C17.6787033 7.0489619 28.02792157 5.47306262 37 2 C36.67 2.99 36.34 3.98 36 5 C30.42556339 7.19868217 25.00513233 7.3973772 19.0625 7.4375 C18.20720703 7.47037109 17.35191406 7.50324219 16.47070312 7.53710938 C10.16067033 7.59005397 5.84220974 6.12842102 1 2 C0.67 1.34 0.34 0.68 0 0 Z " fill="#F2F3FB" transform="translate(321,159)"/>
<path d="M0 0 C0.33 0 0.66 0 1 0 C1.84236153 19.95928856 1.84236153 19.95928856 -3 28 C-5.140625 29.7890625 -5.140625 29.7890625 -7 31 C-6.690625 30.401875 -6.38125 29.80375 -6.0625 29.1875 C-4.45808073 25.88428385 -3.80465845 22.93163332 -3.4375 19.3125 C-3.31181641 18.10013672 -3.31181641 18.10013672 -3.18359375 16.86328125 C-3.09271484 15.94095703 -3.09271484 15.94095703 -3 15 C-2.01 15.33 -1.02 15.66 0 16 C0 10.72 0 5.44 0 0 Z " fill="#949CF0" transform="translate(303,123)"/>
<path d="M0 0 C3.0619078 1.21277372 6.03959864 2.55829154 9 4 C8.52389341 8.99911924 6.96837781 11.97832683 4 16 C4 12.13304322 5.41909971 9.4911548 7 6 C0.94977014 3.33442742 -4.38914524 1.48969295 -11 1 C-11 0.34 -11 -0.32 -11 -1 C-7.45546842 -2.77226579 -3.66175674 -1.0793141 0 0 Z " fill="#EDEFFB" transform="translate(644,135)"/>
<path d="M0 0 C-0.79664063 0.35191406 -1.59328125 0.70382813 -2.4140625 1.06640625 C-9.39504771 4.31910374 -15.91301435 7.35616247 -18.7265625 14.96484375 C-19.18410155 16.63451982 -19.59597755 18.31657313 -20 20 C-20.66 20.33 -21.32 20.66 -22 21 C-22.51117861 15.63262463 -21.3307423 13.18477878 -18 9 C-13.26015433 3.50928769 -7.80978543 -2.45012876 0 0 Z " fill="#EBEDFB" transform="translate(337,83)"/>
<path d="M0 0 C-0.94359375 0.4021875 -0.94359375 0.4021875 -1.90625 0.8125 C-12.1237603 5.49039628 -18.14912718 11.9251103 -23 22 C-24 19 -24 19 -23.06640625 16.765625 C-18.7580485 9.55891749 -9.89562148 -3.29854049 0 0 Z " fill="#E7EAF9" transform="translate(874,83)"/>
<path d="M0 0 C4.94127963 0.98825593 5.66680105 1.17007957 8.8125 4.5625 C9.71935547 5.52349609 9.71935547 5.52349609 10.64453125 6.50390625 C11.09183594 6.99761719 11.53914063 7.49132812 12 8 C11.34 8.66 10.68 9.32 10 10 C9.236875 9.21625 8.47375 8.4325 7.6875 7.625 C5.09108195 4.92742283 5.09108195 4.92742283 2 3 C2 9.27 2 15.54 2 22 C1.67 22 1.34 22 1 22 C0.67 14.74 0.34 7.48 0 0 Z " fill="#E4E6F9" transform="translate(57,19)"/>
<path d="M0 0 C6.41069287 5.27101414 12.18590512 11.09128152 18 17 C16.19140625 17.6640625 16.19140625 17.6640625 14 18 C12.40234375 16.9609375 12.40234375 16.9609375 10.9375 15.375 C10.421875 14.81683594 9.90625 14.25867188 9.375 13.68359375 C7.66462497 11.58935615 6.3721491 9.32668761 5 7 C4.113125 6.113125 3.22625 5.22625 2.3125 4.3125 C1.549375 3.549375 0.78625 2.78625 0 2 C0 1.34 0 0.68 0 0 Z " fill="#5A66EC" transform="translate(17,63)"/>
<path d="M0 0 C-0.65226562 0.32871094 -1.30453125 0.65742187 -1.9765625 0.99609375 C-8.48999283 4.5410138 -12.80198117 8.21453569 -16 15 C-16.66459838 17.67258127 -16.66459838 17.67258127 -17 20 C-17.66 20 -18.32 20 -19 20 C-18.68081829 12.33963888 -14.83693717 8.17069448 -9.875 2.625 C-6.32958054 -0.44769686 -4.51648253 -1.30789807 0 0 Z " fill="#F2F3FC" transform="translate(417,84)"/>
<path d="M0 0 C2 0 2 0 4.625 2.375 C7 5 7 5 7 7 C8.134375 6.835 9.26875 6.67 10.4375 6.5 C14.97060294 5.92423916 19.43747238 5.90494734 24 6 C24 6.33 24 6.66 24 7 C21.93827387 7.33808686 19.8755797 7.67027361 17.8125 8 C16.66394531 8.185625 15.51539063 8.37125 14.33203125 8.5625 C8.46274333 9.33314507 8.46274333 9.33314507 6 9 C4.19921875 7.28515625 4.19921875 7.28515625 2.6875 5.0625 C2.17574219 4.33160156 1.66398438 3.60070312 1.13671875 2.84765625 C0 1 0 1 0 0 Z " fill="#A3A9F2" transform="translate(627,102)"/>
<path d="M0 0 C8.52641502 3.76748571 12.82722968 9.89822945 17 18 C17 18.66 17 19.32 17 20 C16.34 20 15.68 20 15 20 C14.08514127 18.53622604 13.2441948 17.02605511 12.4375 15.5 C9.57221238 10.49463404 6.22550342 7.1914945 1.7578125 3.59375 C1.17773438 3.0678125 0.59765625 2.541875 0 2 C0 1.34 0 0.68 0 0 Z " fill="#F9F9FD" transform="translate(906,84)"/>
<path d="M0 0 C3.55005998 0.69823455 6.44001982 2.11699168 9.625 3.8125 C10.58664062 4.31394531 11.54828125 4.81539062 12.5390625 5.33203125 C15.10862396 7.07362291 16.06141718 8.07209385 17 11 C16.3125 13.1875 16.3125 13.1875 15 15 C14.01 15.33 13.02 15.66 12 16 C12.66 14.02 13.32 12.04 14 10 C12.989375 9.36191406 11.97875 8.72382813 10.9375 8.06640625 C9.62488208 7.23195629 8.31238845 6.3973108 7 5.5625 C6.33226562 5.14162109 5.66453125 4.72074219 4.9765625 4.28710938 C3.30037435 3.21811183 1.64799163 2.11197395 0 1 C0 0.67 0 0.34 0 0 Z " fill="#F2F3FB" transform="translate(908,136)"/>
<path d="M0 0 C3.06520891 1.20558376 6.03992203 2.55687809 9 4 C9 4.99 9 5.98 9 7 C8.47792969 6.73445313 7.95585937 6.46890625 7.41796875 6.1953125 C1.38799013 3.30176759 -4.39506466 1.93827119 -11 1 C-6.8905558 -1.29986248 -4.64568279 -1.06622228 0 0 Z " fill="#E3E6FA" transform="translate(277,48)"/>
<path d="M0 0 C0.99 0 1.98 0 3 0 C3 4.62 3 9.24 3 14 C2.01 14.33 1.02 14.66 0 15 C0 10.05 0 5.1 0 0 Z " fill="#4152E7" transform="translate(59,157)"/>
<path d="M0 0 C0.33 0.66 0.66 1.32 1 2 C-0.98 3.32 -2.96 4.64 -5 6 C-5 5.01 -5 4.02 -5 3 C-7.64 2.67 -10.28 2.34 -13 2 C-13 1.67 -13 1.34 -13 1 C-8.61414671 0.29826347 -4.44209357 -0.10834375 0 0 Z " fill="#2F3EE8" transform="translate(90,111)"/>
<path d="M0 0 C1.16402344 0.00483398 1.16402344 0.00483398 2.3515625 0.00976562 C3.11984375 -0.00634766 3.888125 -0.02246094 4.6796875 -0.0390625 C8.18141817 -0.04209168 10.403114 0.00731006 13.515625 1.71679688 C14.9765625 3.32226562 14.9765625 3.32226562 14.9765625 5.32226562 C14.2134375 5.01289062 13.4503125 4.70351562 12.6640625 4.38476562 C8.02578098 2.55102642 4.22092183 2.19990179 -0.7109375 2.25976562 C-1.41283203 2.26427734 -2.11472656 2.26878906 -2.83789062 2.2734375 C-4.56644288 2.28519636 -6.29495115 2.30313109 -8.0234375 2.32226562 C-5.42217182 -0.27900006 -3.5495373 0.03389315 0 0 Z " fill="#BBBFF6" transform="translate(796.0234375,97.677734375)"/>
<path d="M0 0 C0.33 0.66 0.66 1.32 1 2 C-5.72478992 10.22689076 -5.72478992 10.22689076 -10 13 C-10.99 12.67 -11.98 12.34 -13 12 C-12.31292969 11.38511719 -11.62585937 10.77023438 -10.91796875 10.13671875 C-10.01691406 9.32847656 -9.11585937 8.52023438 -8.1875 7.6875 C-7.29417969 6.88699219 -6.40085937 6.08648437 -5.48046875 5.26171875 C-3.60073214 3.54775419 -1.77407253 1.82122396 0 0 Z " fill="#E6E8FB" transform="translate(66,136)"/>
<path d="M0 0 C0.66 0.33 1.32 0.66 2 1 C-1.96 4.96 -5.92 8.92 -10 13 C-10.66 12.34 -11.32 11.68 -12 11 C-11.38125 10.7525 -10.7625 10.505 -10.125 10.25 C-7.88950792 9.19995835 -7.88950792 9.19995835 -7.125 7.1875 C-5.44194242 3.91488804 -2.88548015 2.25820186 0 0 Z " fill="#E5E8F9" transform="translate(139,73)"/>
<path d="M0 0 C2 2 2 2 2.1953125 4.1640625 C2.17210937 4.97617188 2.14890625 5.78828125 2.125 6.625 C2.10695313 7.44226563 2.08890625 8.25953125 2.0703125 9.1015625 C2.03550781 10.04128906 2.03550781 10.04128906 2 11 C1.34 10.67 0.68 10.34 0 10 C-0.625 7.4375 -0.625 7.4375 -1 5 C-2.65 5.66 -4.3 6.32 -6 7 C-4.02 4.69 -2.04 2.38 0 0 Z " fill="#ECEEF9" transform="translate(366,153)"/>
<path d="M0 0 C0 0.99 0 1.98 0 3 C-0.99 3.33 -1.98 3.66 -3 4 C-3.71727778 5.64551962 -4.38325228 7.31422289 -5 9 C-5.66 9.66 -6.32 10.32 -7 11 C-7.66 10.01 -8.32 9.02 -9 8 C-7.87811441 6.85111717 -6.75238316 5.70598863 -5.625 4.5625 C-4.99851563 3.92441406 -4.37203125 3.28632812 -3.7265625 2.62890625 C-2 1 -2 1 0 0 Z " fill="#2636E4" transform="translate(238,54)"/>
<path d="M0 0 C10.15317287 -0.63019694 10.15317287 -0.63019694 13.6875 2 C14.120625 2.66 14.55375 3.32 15 4 C14.01 4.495 14.01 4.495 13 5 C11.2874346 4.2754531 9.57664766 3.54541056 7.88671875 2.76953125 C5.31353329 1.72001254 2.7473245 1.33503957 0 1 C0 0.67 0 0.34 0 0 Z " fill="#949DF2" transform="translate(345,97)"/>
<path d="M0 0 C0.99 0.66 1.98 1.32 3 2 C-0.12621626 5.39417765 -2.56541027 7.6062718 -7 9 C-5.44499019 5.18315774 -2.96404505 2.80804268 0 0 Z " fill="#2737E3" transform="translate(691,86)"/>
<path d="M0 0 C5.01317493 1.67105831 8.02017994 5.76551886 11 10 C10.67 10.66 10.34 11.32 10 12 C8.32737283 10.38113585 6.66204463 8.7547271 5 7.125 C4.071875 6.22007813 3.14375 5.31515625 2.1875 4.3828125 C0 2 0 2 0 0 Z " fill="#E5E6F9" transform="translate(60,70)"/>
<path d="M0 0 C2.31 0.66 4.62 1.32 7 2 C7.66 4.64 8.32 7.28 9 10 C7.33333333 8.33333333 5.66666667 6.66666667 4 5 C3.236875 4.2575 2.47375 3.515 1.6875 2.75 C0 1 0 1 0 0 Z " fill="#8088EE" transform="translate(272,118)"/>
<path d="M0 0 C4.68021025 2.70412148 7.17376515 4.8435722 9 10 C8.56640625 12.1875 8.56640625 12.1875 8 14 C7.63648438 13.20335937 7.63648438 13.20335937 7.265625 12.390625 C5.28144678 8.20858783 3.43050972 5.18547331 0 2 C0 1.34 0 0.68 0 0 Z " fill="#EDEFFB" transform="translate(135,146)"/>
<path d="M0 0 C5.78461538 3.44615385 5.78461538 3.44615385 6.875 6.25 C6.936875 7.11625 6.936875 7.11625 7 8 C7.66 8 8.32 8 9 8 C8.34 9.32 7.68 10.64 7 12 C6.34 11.01 5.68 10.02 5 9 C3.67945725 7.20326153 2.35455044 5.41001721 1.0234375 3.62109375 C0 2 0 2 0 0 Z " fill="#A7AEF3" transform="translate(811,103)"/>
<path d="M0 0 C-3 2 -3 2 -6 2 C-6 2.66 -6 3.32 -6 4 C-8.31 4.33 -10.62 4.66 -13 5 C-9.37863252 0.80683766 -5.43991867 -0.3108525 0 0 Z " fill="#2130E4" transform="translate(425,82)"/>
<path d="M0 0 C0 0.33 0 0.66 0 1 C-1.24716797 1.19916016 -1.24716797 1.19916016 -2.51953125 1.40234375 C-3.60621094 1.57894531 -4.69289063 1.75554687 -5.8125 1.9375 C-6.89144531 2.11152344 -7.97039063 2.28554687 -9.08203125 2.46484375 C-12.04933356 2.93871921 -12.04933356 2.93871921 -15 4 C-15.33 3.34 -15.66 2.68 -16 2 C-10.23826317 -1.06475363 -6.37259801 -1.19937786 0 0 Z " fill="#6C77EB" transform="translate(708,101)"/>
<path d="M0 0 C0.33 0.99 0.66 1.98 1 3 C-4.28 2.67 -9.56 2.34 -15 2 C-15 1.67 -15 1.34 -15 1 C-13.43784452 0.83013455 -11.8752548 0.66426036 -10.3125 0.5 C-9.44238281 0.4071875 -8.57226562 0.314375 -7.67578125 0.21875 C-5.10276661 0.00840136 -2.58015636 -0.03719144 0 0 Z " fill="#E0E2F8" transform="translate(625,79)"/>
<path d="M0 0 C0.66 0.33 1.32 0.66 2 1 C-0.97 4.96 -0.97 4.96 -4 9 C-4.33 7.68 -4.66 6.36 -5 5 C-2.5625 2.25 -2.5625 2.25 0 0 Z " fill="#E3E5F8" transform="translate(22,141)"/>
<path d="M0 0 C0.66 0.33 1.32 0.66 2 1 C-0.41556126 4.19199167 -2.68003538 6.74716687 -6 9 C-6.66 8.67 -7.32 8.34 -8 8 C-5.36 5.36 -2.72 2.72 0 0 Z " fill="#E0E3F9" transform="translate(174,75)"/>
<path d="M0 0 C6.4 -0.49230769 6.4 -0.49230769 9.4375 2 C10.2109375 2.99 10.2109375 2.99 11 4 C8.04725901 4 6.50941597 3.56108169 3.8125 2.5 C3.09707031 2.2215625 2.38164062 1.943125 1.64453125 1.65625 C1.10183594 1.4396875 0.55914062 1.223125 0 1 C0 0.67 0 0.34 0 0 Z " fill="#8F98F0" transform="translate(432,97)"/>
<path d="M0 0 C0.8971875 0.5259375 0.8971875 0.5259375 1.8125 1.0625 C-1.69526784 2.66605101 -4.33104879 3.28286864 -8.1875 3.0625 C-5.67391791 0.30952914 -3.81682031 -1.63578013 0 0 Z " fill="#6872EC" transform="translate(517.1875,64.9375)"/>
<path d="M0 0 C0.66 0.33 1.32 0.66 2 1 C-0.31 3.64 -2.62 6.28 -5 9 C-5.66 8.67 -6.32 8.34 -7 8 C-6.67 7.34 -6.34 6.68 -6 6 C-5.34 6 -4.68 6 -4 6 C-3.67 5.01 -3.34 4.02 -3 3 C-2.34 3 -1.68 3 -1 3 C-0.67 2.01 -0.34 1.02 0 0 Z " fill="#F6F7FB" transform="translate(906,137)"/>
<path d="M0 0 C0.66 0.33 1.32 0.66 2 1 C0.88121617 2.17262904 -0.24523051 3.33795138 -1.375 4.5 C-2.00148438 5.1496875 -2.62796875 5.799375 -3.2734375 6.46875 C-5 8 -5 8 -7 8 C-5.50902342 4.2047869 -3.24299151 2.38957269 0 0 Z " fill="#EAEBFA" transform="translate(43,121)"/>
<path d="M0 0 C8.57142857 0.71428571 8.57142857 0.71428571 12 4 C11.01 4.33 10.02 4.66 9 5 C9 4.34 9 3.68 9 3 C7.02 3 5.04 3 3 3 C3 2.34 3 1.68 3 1 C2.01 0.67 1.02 0.34 0 0 Z " fill="#1C2BE2" transform="translate(356,82)"/>
<path d="M0 0 C0 0.66 0 1.32 0 2 C-4.29 1.67 -8.58 1.34 -13 1 C-13 0.67 -13 0.34 -13 0 C-4.57142857 -1.28571429 -4.57142857 -1.28571429 0 0 Z " fill="#E0E2F9" transform="translate(813,80)"/>
<path d="M0 0 C-1 3 -1 3 -3.4375 4.75 C-4.7059375 5.36875 -4.7059375 5.36875 -6 6 C-6.66 5.67 -7.32 5.34 -8 5 C-3.375 0 -3.375 0 0 0 Z " fill="#1B2AE3" transform="translate(96,121)"/>
<path d="M0 0 C2.31 0 4.62 0 7 0 C7 0.99 7 1.98 7 3 C4.69 3 2.38 3 0 3 C0 2.01 0 1.02 0 0 Z " fill="#4D5DE7" transform="translate(702,81)"/>
<path d="M0 0 C-5.2734375 3.22265625 -5.2734375 3.22265625 -7 4 C-7.66 3.67 -8.32 3.34 -9 3 C-6.38220849 -0.01046024 -3.86655673 -1.93327837 0 0 Z " fill="#A7ACF5" transform="translate(298,76)"/>
</svg>
